<svg width="48" height="48" viewBox="0 0 48 48" fill="none" xmlns="http://www.w3.org/2000/svg">
<path d="M30.2455 30H31.3219C33.3533 30 35 28.3533 35 26.3219C35 24.7221 33.9658 23.3057 32.442 22.8185L31.7703 22.6038C31.3855 22.4808 31.1244 22.1231 31.1244 21.7192V20.9786C31.1244 18.9479 29.7098 17.1914 27.7257 16.7584L27.2131 16.6466C25.4918 16.271 23.7456 17.1673 23.0473 18.7847C22.8743 19.1853 22.4175 19.3797 22.0089 19.2267L21.8108 19.1525C21.1302 18.8975 20.3715 18.9584 19.7404 19.3187C19.2578 19.5942 18.9087 20.0548 18.7738 20.5939L18.7347 20.75M15.7319 23L15.3178 23.1516C13.9257 23.6611 13 24.9858 13 26.4682C13 28.4188 14.5812 30 16.5318 30H26.7422" stroke="black" stroke-width="1.5" stroke-linecap="round"/>
<path d="M38.3013 14.2636C37.8946 14.1852 37.5014 14.4513 37.423 14.8581L36.1457 21.4861C36.0673 21.8929 36.3335 22.2861 36.7402 22.3645C37.1469 22.4429 37.5402 22.1767 37.6186 21.77L38.7539 15.8784L44.6455 17.0137C45.0523 17.0921 45.4455 16.8259 45.5239 16.4192C45.6023 16.0125 45.3361 15.6192 44.9294 15.5408L38.3013 14.2636ZM40.25 24.2578C40.25 24.6721 40.5858 25.0078 41 25.0078C41.4142 25.0078 41.75 24.6721 41.75 24.2578H41H40.25ZM38.1594 15L37.5383 15.4204C39.2522 17.9526 40.25 20.9901 40.25 24.2578H41H41.75C41.75 20.6795 40.6562 17.3508 38.7805 14.5796L38.1594 15Z" fill="black"/>
<path d="M39.662 30.7715C37.0754 36.7822 31.0174 41 23.9565 41C19.7845 41 15.9626 39.5275 13 37.0826" stroke="black" stroke-width="1.5" stroke-linecap="round"/>
<path d="M8.20031 31.7005C8.58717 31.8485 9.02079 31.6549 9.16882 31.268L11.5812 24.9638C11.7292 24.577 11.5356 24.1433 11.1487 23.9953C10.7619 23.8473 10.3282 24.0409 10.1802 24.4277L8.03592 30.0315L2.43217 27.8872C2.04531 27.7392 1.6117 27.9328 1.46366 28.3196C1.31563 28.7065 1.50924 29.1401 1.8961 29.2881L8.20031 31.7005ZM7.75 24.0847C7.75 23.6705 7.41421 23.3347 7 23.3347C6.58579 23.3347 6.25 23.6705 6.25 24.0847H7H7.75ZM8.46835 31L9.15319 30.6942C8.25131 28.6743 7.75 26.4386 7.75 24.0847H7H6.25C6.25 26.6536 6.79749 29.0974 7.78351 31.3058L8.46835 31Z" fill="black"/>
<path d="M8.12371 18C10.594 11.5687 16.866 7 24.2131 7C27.0156 7 29.6617 7.66475 32 8.84404" stroke="black" stroke-width="1.5" stroke-linecap="round"/>
</svg>
