<svg width="48" height="48" viewBox="0 0 48 48" fill="none" xmlns="http://www.w3.org/2000/svg">
<path d="M37 30L36.8785 30.4251C36.6093 31.3674 35.2859 31.4002 34.9703 30.4724L34.0234 27.6882C33.9314 27.4176 33.7279 27.1993 33.4644 27.0885L30.6911 25.9218C29.8748 25.5783 29.8748 24.4217 30.6911 24.0782L33.4789 22.9054C33.7339 22.7981 33.9331 22.59 34.0291 22.3305L35.0621 19.5367C35.3841 18.6658 36.6159 18.6658 36.9379 19.5367L37.9709 22.3305C38.0669 22.59 38.2661 22.7981 38.5211 22.9054L41.356 24.098C42.1654 24.4385 42.1743 25.5823 41.3704 25.9354L38.8479 27.0433C38.6831 27.1156 38.5313 27.223 38.4082 27.3543C38.3794 27.3851 38.3461 27.4206 38.3077 27.4615" stroke="black" stroke-width="1.5" stroke-linecap="round"/>
<path d="M22.5 17.5L21.8755 17.6388C20.8611 17.8642 20.8209 19.2954 21.8211 19.5774L24.0585 20.2083C24.3503 20.2906 24.5891 20.5008 24.7076 20.7799L25.5796 22.8329C25.9245 23.645 27.0755 23.645 27.4204 22.8329L28.3104 20.7375C28.4185 20.4829 28.6273 20.2845 28.887 20.1894L30.936 19.439C31.8108 19.1186 31.8108 17.8814 30.936 17.561L28.887 16.8106C28.6273 16.7155 28.4185 16.5171 28.3104 16.2625L27.3953 14.1078C27.0541 13.3046 25.9197 13.2931 25.5625 14.0893L24.9783 15.3913" stroke="black" stroke-width="1.5" stroke-linecap="round"/>
<path d="M25.7676 27.6338C25.8509 27.4229 26.1491 27.4229 26.2324 27.6338L26.416 28.0986C26.5939 28.5494 26.9506 28.9061 27.4014 29.084L27.8662 29.2676C28.0771 29.3509 28.0771 29.6491 27.8662 29.7324L27.4014 29.916C26.9506 30.0939 26.5939 30.4506 26.416 30.9014L26.2324 31.3662C26.1491 31.5771 25.8509 31.5771 25.7676 31.3662L25.584 30.9014C25.4061 30.4506 25.0494 30.0939 24.5986 29.916L24.1338 29.7324C23.9229 29.6491 23.9229 29.3509 24.1338 29.2676L24.5986 29.084C25.0494 28.9061 25.4061 28.5494 25.584 28.0986L25.7676 27.6338Z" stroke="black" stroke-width="1.5"/>
<path d="M12 18V38C12 40.7614 14.2386 43 17 43H29C31.7614 43 34 40.7614 34 38V34" stroke="black" stroke-width="1.5" stroke-linecap="round"/>
<path d="M34 15.5V9C34 6.23858 31.7614 4 29 4H17C14.2386 4 12 6.23858 12 9V10.5" stroke="black" stroke-width="1.5" stroke-linecap="round"/>
<circle cx="23" cy="7" r="1" fill="black"/>
</svg>
