<svg width="48" height="48" viewBox="0 0 48 48" fill="none" xmlns="http://www.w3.org/2000/svg">
<path d="M16.224 16.2334H16L11.2071 16.3399C8.53982 16.3992 7.27104 19.6497 9.19287 21.5002L13.5478 25.6935C14.3593 26.4749 14.6646 27.645 14.3384 28.7233L12.3924 35.1556C11.5687 37.8781 14.6427 40.1114 16.9774 38.4868L22.3453 34.7515C23.3459 34.0551 24.6685 34.0336 25.6913 34.697L31.5301 38.4842C33.5974 39.8251 36.2136 37.8586 35.5 35.5L33.6752 28.9293C33.3462 27.7445 33.7735 26.4788 34.7534 25.7359L39.9478 21.7977C42.2144 20.0793 41.0403 16.4657 38.1965 16.4077L31.7299 16.276C30.4754 16.2504 29.3693 15.4468 28.9573 14.2616L26.8337 8.15216C25.8998 5.46548 22.1002 5.46548 21.1663 8.15216L19.0577 14.2184C18.6383 15.4248 17.5012 16.2334 16.224 16.2334Z" fill="black" stroke="black" stroke-width="1.5"/>
</svg>
