<svg xmlns="http://www.w3.org/2000/svg" viewBox="0 0 512 240" width="100%" height="100%">
  <rect width="512" height="240" rx="46" fill="#F5C518"/>
  <path d="M84 66 h26 v108 H84 Z M130 66 h38 l16 64 l16 -64 h38 v108 h-26 V94 l-18 68 h-20 l-18 -68 v80 h-26 Z M262 66 h44 c24 0 40 15 40 54 s-16 54 -40 54 h-44 Z M288 88 v64 h16 c12 0 18 -10 18 -32 s-6 -32 -18 -32 Z M358 66 h26 v38 c5 -5 13 -8 21 -8 c20 0 36 17 36 54 c0 37 -16 54 -36 54 c-8 0 -16 -3 -21 -8 v8 h-26 Z M384 122 v38 c4 4 10 6 15 6 c12 0 20 -10 20 -33 c0 -23 -8 -33 -20 -33 c-5 0 -11 2 -15 6 Z M25 66 h18 v108 H25 Z" fill="#000000"/>
</svg>
