<svg width="24" height="24" viewBox="0 0 24 24" fill="none" xmlns="http://www.w3.org/2000/svg">
<path d="M10.5 10H18C19.6569 10 21 8.65685 21 7V6.81818V6.69444V6C21 4.34315 19.6569 3 18 3H6C4.34315 3 3 4.34315 3 6V7C3 8.65685 4.34315 10 6 10" stroke="#2DD4BF" stroke-width="2" stroke-linecap="round"/>
<path d="M18 21C19.6569 21 21 19.6569 21 18V17C21 15.3431 19.6569 14 18 14H6C4.34315 14 3 15.3431 3 17V18C3 19.6569 4.34315 21 6 21H13.5" stroke="#2DD4BF" stroke-width="2" stroke-linecap="round"/>
<circle cx="1" cy="1" r="1" transform="matrix(-1 0 0 1 19 5.5)" fill="#2DD4BF"/>
<circle cx="1" cy="1" r="1" transform="matrix(-1 0 0 1 19 16.5)" fill="#2DD4BF"/>
<mask id="path-5-inside-1_1_2" fill="white">
<path d="M14 6.5C14 5.94772 13.5523 5.5 13 5.5H7C6.44772 5.5 6 5.94772 6 6.5C6 7.05228 6.44772 7.5 7 7.5H13C13.5523 7.5 14 7.05228 14 6.5Z"/>
</mask>
<path d="M13 5.5V7.5H7V5.5V3.5H13V5.5ZM7 7.5V5.5H13V7.5V9.5H7V7.5ZM13 7.5V5.5C12.4477 5.5 12 5.94772 12 6.5H14H16C16 8.15685 14.6569 9.5 13 9.5V7.5ZM6 6.5H8C8 5.94772 7.55228 5.5 7 5.5V7.5V9.5C5.34315 9.5 4 8.15685 4 6.5H6ZM7 5.5V7.5C7.55228 7.5 8 7.05228 8 6.5H6H4C4 4.84315 5.34315 3.5 7 3.5V5.5ZM13 5.5V3.5C14.6569 3.5 16 4.84315 16 6.5H14H12C12 7.05228 12.4477 7.5 13 7.5V5.5Z" fill="#2DD4BF" mask="url(#path-5-inside-1_1_2)"/>
<mask id="path-7-inside-2_1_2" fill="white">
<path d="M14 17.5C14 16.9477 13.5523 16.5 13 16.5H7C6.44772 16.5 6 16.9477 6 17.5C6 18.0523 6.44772 18.5 7 18.5H13C13.5523 18.5 14 18.0523 14 17.5Z"/>
</mask>
<path d="M13 16.5V18.5H7V16.5V14.5H13V16.5ZM7 18.5V16.5H13V18.5V20.5H7V18.5ZM13 18.5V16.5C12.4477 16.5 12 16.9477 12 17.5H14H16C16 19.1569 14.6569 20.5 13 20.5V18.5ZM6 17.5H8C8 16.9477 7.55228 16.5 7 16.5V18.5V20.5C5.34315 20.5 4 19.1569 4 17.5H6ZM7 16.5V18.5C7.55228 18.5 8 18.0523 8 17.5H6H4C4 15.8431 5.34315 14.5 7 14.5V16.5ZM13 16.5V14.5C14.6569 14.5 16 15.8431 16 17.5H14H12C12 18.0523 12.4477 18.5 13 18.5V16.5Z" fill="#2DD4BF" mask="url(#path-7-inside-2_1_2)"/>
</svg>
