<svg width="24" height="24" viewBox="0 0 24 24" fill="none" xmlns="http://www.w3.org/2000/svg">
<path d="M3.98549 8C3.35525 9.21593 3 10.5919 3 12.0492C3 16.9926 7.08783 21 12.1304 21C14.3655 21 16.4129 20.2127 18 18.9057" stroke="#2DD4BF" stroke-width="2" stroke-linecap="round"/>
<path d="M6.87194 4.68069C8.33268 3.62212 10.1169 3 12.0432 3C16.9899 3 21 7.1027 21 12.1636C21 13.1536 20.8466 14.1069 20.5627 15" stroke="#2DD4BF" stroke-width="2" stroke-linecap="round"/>
<path d="M15.097 8.7685L12.6801 9.97012C12.5905 10.0146 12.4969 10.0502 12.4004 10.0764C12.1382 10.1477 11.8618 10.1477 11.5996 10.0764C11.5031 10.0502 11.4095 10.0146 11.3199 9.97012L8.90304 8.76849C8.82584 8.73011 8.73256 8.74734 8.67417 8.81078C8.58692 8.90557 8.61473 9.05753 8.72989 9.11527L10.5166 10.0112C11.0915 10.2995 11.4545 10.8876 11.4545 11.5308V12.6796C11.4545 13.3683 11.2308 14.0384 10.8169 14.5889L9.32901 16.5684C9.27006 16.6468 9.2755 16.7561 9.34194 16.8283C9.4255 16.9191 9.56999 16.9151 9.64848 16.8199L11.4545 14.6296C11.7043 14.2226 12.2957 14.2226 12.5455 14.6296L14.3515 16.8199C14.43 16.9151 14.5745 16.9191 14.6581 16.8283C14.7245 16.7561 14.7299 16.6468 14.671 16.5684L13.1831 14.5889C12.7692 14.0384 12.5455 13.3683 12.5455 12.6796V11.5308C12.5455 10.8876 12.9085 10.2995 13.4834 10.0112L15.2701 9.11528C15.3853 9.05753 15.4131 8.90557 15.3258 8.81078C15.2674 8.74735 15.1742 8.73011 15.097 8.7685Z" fill="#2DD4BF" stroke="#2DD4BF" stroke-width="1.5" stroke-linecap="round"/>
<circle cx="12" cy="7.25" r="1" fill="#2DD4BF" stroke="#2DD4BF" stroke-width="0.5"/>
</svg>
