<svg width="24" height="24" viewBox="0 0 24 24" fill="none" xmlns="http://www.w3.org/2000/svg">
<path d="M9.25049 17.234L13.2267 11.5114C13.3673 11.3091 14.5703 9.45242 15.4241 8.13985C15.8878 7.42694 15.7012 6.45912 15.0028 5.97384C14.3044 5.48855 13.3448 5.66134 12.8595 6.35976L12.5216 6.84615L10.661 9.40301" stroke="#2DD4BF" stroke-width="2" stroke-linecap="round"/>
<path d="M12.5 10.0947L12.0472 9.78009" stroke="#2DD4BF" stroke-width="1.5" stroke-linecap="round"/>
<path d="M6.7148 20.6008L6.51861 20.8831C6.03149 21.5842 5.06827 21.7576 4.3672 21.2705C3.66989 20.786 3.49395 19.8297 3.97317 19.1288L8.16313 13" stroke="#2DD4BF" stroke-width="2" stroke-linecap="round"/>
<path d="M19.5 9.43164C19.5219 9.45502 19.544 9.47807 19.5674 9.5C19.5442 9.52177 19.5218 9.54419 19.5 9.56738C19.4781 9.54401 19.455 9.52192 19.4316 9.5C19.4552 9.47792 19.4779 9.45519 19.5 9.43164Z" stroke="#2DD4BF" stroke-width="2"/>
<path d="M17.5 3.43164C17.5219 3.45502 17.544 3.47807 17.5674 3.5C17.5442 3.52177 17.5218 3.54419 17.5 3.56738C17.4781 3.54401 17.455 3.52192 17.4316 3.5C17.4552 3.47792 17.4779 3.45519 17.5 3.43164Z" stroke="#2DD4BF" stroke-width="2"/>
<path d="M10.5 3.43164C10.5219 3.45502 10.544 3.47807 10.5674 3.5C10.5442 3.52177 10.5218 3.54419 10.5 3.56738C10.4781 3.54401 10.455 3.52192 10.4316 3.5C10.4552 3.47792 10.4779 3.45519 10.5 3.43164Z" stroke="#2DD4BF" stroke-width="2"/>
</svg>
