<svg width="24" height="24" viewBox="0 0 24 24" fill="none" xmlns="http://www.w3.org/2000/svg">
<path d="M6.8507 9.12557C6.77765 9.82874 6.72047 10.6675 6.66422 11.6762C6.59651 12.8904 6.18111 14.0604 5.4565 15.037C4.85425 15.8487 5.43364 17 6.44434 17H14.5" stroke="#2DD4BF" stroke-width="2" stroke-linecap="round"/>
<path d="M18 17C18.788 17 19.2144 16.077 18.7037 15.477L18.4906 15.2267C17.6882 14.284 17.2423 13.0894 17.1977 11.8522C17.0288 7.15995 16.57 6.51703 14.0912 5.75659C12.4112 5.24124 10.5717 5.21416 9 6" stroke="#2DD4BF" stroke-width="2" stroke-linecap="round"/>
<path d="M14 19.445C13.5686 19.796 13.0534 20 12.5 20C11.9466 20 11.4314 19.796 11 19.445" stroke="#2DD4BF" stroke-width="1.5" stroke-linecap="round"/>
<path d="M13 3C12.4477 2.44772 11.5523 2.44772 11 3" stroke="#2DD4BF" stroke-width="1.5" stroke-linecap="round"/>
<path d="M17.5 4.5C18.9022 5.98487 18.9473 6.07336 19.5 8.5" stroke="#2DD4BF" stroke-width="1.5" stroke-linecap="round"/>
<path d="M19 2.99983C20.0683 3.80187 20.7095 4.82378 21 6" stroke="#2DD4BF" stroke-width="1.5" stroke-linecap="round"/>
<path d="M6.5 4.50017C5.09781 5.98504 5.05266 6.07353 4.5 8.50017" stroke="#2DD4BF" stroke-width="1.5" stroke-linecap="round"/>
<path d="M5 3C3.9317 3.80205 3.29045 4.82395 3 6.00017" stroke="#2DD4BF" stroke-width="1.5" stroke-linecap="round"/>
</svg>
