<svg width="24" height="24" viewBox="0 0 24 24" fill="none" xmlns="http://www.w3.org/2000/svg">
<mask id="path-1-inside-1_1_2" fill="white">
<path d="M8 2C8 1.44772 8.44772 1 9 1C9.55228 1 10 1.44772 10 2V4C10 4.55228 9.55228 5 9 5C8.44772 5 8 4.55228 8 4V2Z"/>
</mask>
<path d="M10 2H8V4H10H12V2H10ZM8 4H10V2H8H6V4H8ZM9 5V3C9.55228 3 10 3.44772 10 4H8H6C6 5.65685 7.34315 7 9 7V5ZM10 4H8C8 3.44772 8.44772 3 9 3V5V7C10.6569 7 12 5.65685 12 4H10ZM9 1V3C8.44772 3 8 2.55228 8 2H10H12C12 0.343146 10.6569 -1 9 -1V1ZM9 1V-1C7.34315 -1 6 0.343146 6 2H8H10C10 2.55228 9.55228 3 9 3V1Z" fill="#2DD4BF" mask="url(#path-1-inside-1_1_2)"/>
<mask id="path-3-inside-2_1_2" fill="white">
<path d="M14 2C14 1.44772 14.4477 1 15 1C15.5523 1 16 1.44772 16 2V4C16 4.55228 15.5523 5 15 5C14.4477 5 14 4.55228 14 4V2Z"/>
</mask>
<path d="M16 2H14V4H16H18V2H16ZM14 4H16V2H14H12V4H14ZM15 5V3C15.5523 3 16 3.44772 16 4H14H12C12 5.65685 13.3431 7 15 7V5ZM16 4H14C14 3.44772 14.4477 3 15 3V5V7C16.6569 7 18 5.65685 18 4H16ZM15 1V3C14.4477 3 14 2.55228 14 2H16H18C18 0.343146 16.6569 -1 15 -1V1ZM15 1V-1C13.3431 -1 12 0.343146 12 2H14H16C16 2.55228 15.5523 3 15 3V1Z" fill="#2DD4BF" mask="url(#path-3-inside-2_1_2)"/>
<path d="M14 13H16C16.5523 13 17 13.4477 17 14V16C17 16.5523 16.5523 17 16 17H14C13.4477 17 13 16.5523 13 16V14C13 13.4477 13.4477 13 14 13Z" stroke="#2DD4BF" stroke-width="2"/>
<path d="M6.5 3C4.567 3 3 4.567 3 6.5V7" stroke="#2DD4BF" stroke-width="2" stroke-linecap="round"/>
<path d="M11.5 3H12.5" stroke="#2DD4BF" stroke-width="2" stroke-linecap="round"/>
<path d="M17.5 3C19.433 3 21 4.567 21 6.5V12.5" stroke="#2DD4BF" stroke-width="2" stroke-linecap="round"/>
<path d="M3 11.5V17C3 19.2091 4.79086 21 7 21H17C19.2091 21 21 19.2091 21 17" stroke="#2DD4BF" stroke-width="2" stroke-linecap="round"/>
<path d="M6.5 8H17.5" stroke="#2DD4BF" stroke-width="2" stroke-linecap="round"/>
</svg>
