<svg width="24" height="24" viewBox="0 0 24 24" fill="none" xmlns="http://www.w3.org/2000/svg">
<path d="M10.5 4L10.9722 3.52776C11.545 2.95498 12.4691 2.94042 13.0596 3.49487L17.0792 7.26882C17.4095 7.57895 17.1901 8.13333 16.737 8.13333H14.6818C14.4057 8.13333 14.1818 8.35719 14.1818 8.63333V11.3182C14.1818 12.5232 13.205 13.5 12 13.5C10.795 13.5 9.81818 12.5232 9.81818 11.3182V8.63333C9.81818 8.35719 9.59432 8.13333 9.31818 8.13333H7.35353C6.8891 8.13333 6.67559 7.55533 7.02848 7.25341L7.75982 6.62771" stroke="#2DD4BF" stroke-width="2" stroke-linecap="round"/>
<path d="M17.8667 17H18C19.1046 17 20 17.8954 20 19C20 20.1046 19.1046 21 18 21H6C4.89543 21 4 20.1046 4 19C4 17.8954 4.89543 17 6 17H13.0667" stroke="#2DD4BF" stroke-width="2" stroke-linecap="round"/>
</svg>
