<svg width="24" height="24" viewBox="0 0 24 24" fill="none" xmlns="http://www.w3.org/2000/svg">
<path d="M17.5 16H18.3985C19.8353 16 21 14.8353 21 13.3985C21 12.2457 20.2413 11.2303 19.1358 10.9036L18.5043 10.717C18.2083 10.6295 18.0052 10.3577 18.0052 10.049V9.83511C18.0052 8.22754 16.8719 6.84286 15.2961 6.52503L14.8486 6.43478C13.5836 6.17965 12.3083 6.82329 11.7622 7.99249C11.6275 8.28089 11.2967 8.42086 10.9959 8.3167L10.7662 8.23715C10.2636 8.06308 9.71126 8.10519 9.24084 8.35344C8.84789 8.5608 8.55879 8.92214 8.44269 9.35101L8.43136 9.39286" stroke="#2DD4BF" stroke-width="2" stroke-linecap="round"/>
<path d="M13 16H6.63305C5.17886 16 4 14.8211 4 13.367L4 13.0193C4 12.2393 4.49728 11.546 5.23616 11.296" stroke="#2DD4BF" stroke-width="2" stroke-linecap="round"/>
</svg>
