<svg width="24" height="24" viewBox="0 0 24 24" fill="none" xmlns="http://www.w3.org/2000/svg">
<path d="M19.5 11V8.45771C19.5 7.39899 18.942 6.41866 18.0316 5.87815L12.9862 2.88245C12.0663 2.33624 10.9251 2.32127 9.99115 2.84318L4.53654 5.89135C3.5878 6.42152 3 7.42336 3 8.51018V14.4898C3 15.5766 3.5878 16.5785 4.53653 17.1087L9.99115 20.1568C10.9251 20.6787 12.0663 20.6638 12.9862 20.1176L18.8193 16.6542C19.2413 16.4036 19.5 15.9491 19.5 15.4583" stroke="#2DD4BF" stroke-width="2" stroke-linecap="round"/>
<path d="M6.5 9L9.95651 11.0739C10.9066 11.6439 12.0934 11.6439 13.0435 11.0739L19 7.5" stroke="#2DD4BF" stroke-width="2" stroke-linecap="round"/>
<path d="M11.5 20V12" stroke="#2DD4BF" stroke-width="2" stroke-linecap="round"/>
<ellipse cx="7.24876" cy="13.7624" rx="0.766325" ry="0.908959" transform="rotate(-1.14463 7.24876 13.7624)" fill="#2DD4BF"/>
<ellipse cx="17.3385" cy="10.9407" rx="0.853882" ry="0.701152" transform="rotate(97.7569 17.3385 10.9407)" fill="#2DD4BF"/>
<ellipse cx="0.772823" cy="1.05838" rx="0.772823" ry="1.05838" transform="matrix(0.0348995 -0.99939 -0.99939 -0.0348995 9.57313 7.67402)" fill="#2DD4BF"/>
<ellipse cx="0.789084" cy="1.04344" rx="0.789084" ry="1.04344" transform="matrix(0.0174524 -0.999847 -0.999847 -0.0174524 15.9725 7.66503)" fill="#2DD4BF"/>
<ellipse cx="14.142" cy="16.1259" rx="0.853882" ry="0.701152" transform="rotate(97.4678 14.142 16.1259)" fill="#2DD4BF"/>
<ellipse cx="15.7312" cy="13.7258" rx="0.853882" ry="0.701153" transform="rotate(96.9266 15.7312 13.7258)" fill="#2DD4BF"/>
</svg>
