<svg width="24" height="24" viewBox="0 0 24 24" fill="none" xmlns="http://www.w3.org/2000/svg">
<path d="M8.44213 4.8918C9.99401 2.26252 13.8005 2.27119 15.3406 4.90743L21.2263 14.9826C22.784 17.6491 20.8612 20.9999 17.7732 21.0002H6.14037C3.07807 21 1.15095 17.6988 2.65697 15.0324L7.12865 7.11739L7.13353 7.1086L7.13842 7.10079L8.44213 4.8918ZM12.0495 15.0002C11.3594 15.0004 10.7995 15.56 10.7995 16.2502C10.7997 16.9403 11.3595 17.5 12.0495 17.5002C12.7398 17.5002 13.2994 16.9405 13.2995 16.2502C13.2995 15.5598 12.7399 15.0002 12.0495 15.0002ZM11.9997 6.7502C11.0168 6.75035 10.2585 7.61663 10.3884 8.59102L10.8787 12.2688C10.9536 12.8303 11.4332 13.2501 11.9997 13.2502C12.5664 13.2502 13.0458 12.8304 13.1208 12.2688L13.6042 8.64083L13.6111 8.59102C13.741 7.61655 12.9828 6.7502 11.9997 6.7502Z" fill="#2DD4BF"/>
</svg>
