<svg width="24" height="24" viewBox="0 0 24 24" fill="none" xmlns="http://www.w3.org/2000/svg">
<path d="M16 15.5386C7.94705 16.7155 4.10935 13.3779 2.9202 12.0335C2.64757 11.7253 2.65888 11.2812 2.92251 10.9652C3.32331 10.4849 3.9451 9.80919 4.5 9.5" stroke="#2DD4BF" stroke-width="1.5" stroke-linecap="round"/>
<path d="M19.5 13.5C19.9797 13.2015 20.599 12.5472 21.0205 12.068C21.312 11.7365 21.3251 11.2533 21.031 10.9242C19.6662 9.39632 15.3225 5.50197 8 7.69315" stroke="#2DD4BF" stroke-width="1.5" stroke-linecap="round"/>
<path d="M15 10C15.6056 10.9083 15.6056 12.0917 15 13" stroke="#2DD4BF" stroke-width="1.5" stroke-linecap="round"/>
<path d="M9 13C8.39445 12.0917 8.39445 10.9083 9 10" stroke="#2DD4BF" stroke-width="1.5" stroke-linecap="round"/>
<circle cx="12" cy="11.5" r="0.75" fill="#2DD4BF" stroke="#2DD4BF" stroke-width="1.5"/>
</svg>
