<svg width="24" height="24" viewBox="0 0 24 24" fill="none" xmlns="http://www.w3.org/2000/svg">
<path d="M5 7H4.5C3.67157 7 3 6.32843 3 5.5V4.5C3 3.67157 3.67157 3 4.5 3H5.5C6.32843 3 7 3.67157 7 4.5V5" stroke="#2DD4BF" stroke-width="2" stroke-linecap="round"/>
<rect x="10" y="3" width="4" height="4" rx="1.5" stroke="#2DD4BF" stroke-width="2"/>
<rect x="17" y="3" width="4" height="4" rx="1.5" stroke="#2DD4BF" stroke-width="2"/>
<rect x="3" y="10" width="4" height="4" rx="1.5" stroke="#2DD4BF" stroke-width="2"/>
<rect x="10" y="10" width="4" height="4" rx="1.5" stroke="#2DD4BF" stroke-width="2"/>
<rect x="17" y="10" width="4" height="4" rx="1.5" stroke="#2DD4BF" stroke-width="2"/>
<rect x="3" y="17" width="4" height="4" rx="1.5" stroke="#2DD4BF" stroke-width="2"/>
<rect x="10" y="17" width="4" height="4" rx="1.5" stroke="#2DD4BF" stroke-width="2"/>
<path d="M19 17H19.5C20.3284 17 21 17.6716 21 18.5V19.5C21 20.3284 20.3284 21 19.5 21H18.5C17.6716 21 17 20.3284 17 19.5V19.1538" stroke="#2DD4BF" stroke-width="2" stroke-linecap="round"/>
</svg>
