<svg width="24" height="24" viewBox="0 0 24 24" fill="none" xmlns="http://www.w3.org/2000/svg">
<rect x="14" y="3" width="7" height="7" rx="2" stroke="#2DD4BF" stroke-width="2"/>
<rect x="3" y="14" width="7" height="7" rx="2" stroke="#2DD4BF" stroke-width="2"/>
<path d="M21 17.5V16C21 14.8954 20.1046 14 19 14H16C14.8954 14 14 14.8954 14 16V19C14 20.1046 14.8954 21 16 21H17.7918C18.2575 21 18.7169 20.8916 19.1334 20.6833L19.5 20.5" stroke="#2DD4BF" stroke-width="2" stroke-linecap="round"/>
<path d="M10 6.5V8C10 9.10457 9.10457 10 8 10H5C3.89543 10 3 9.10457 3 8V5C3 3.89543 3.89543 3 5 3H6.7918C7.25753 3 7.71687 3.10844 8.13344 3.31672L8.5 3.5" stroke="#2DD4BF" stroke-width="2" stroke-linecap="round"/>
</svg>
