<svg width="24" height="24" viewBox="0 0 24 24" fill="none" xmlns="http://www.w3.org/2000/svg">
<path d="M4.37715 6.33418C4.1352 6.8569 4 7.4406 4 8.05646C4.01605 12.4215 9.2388 15.6843 11.486 19.1022C11.716 19.452 12.2851 19.4509 12.515 19.1012C12.8877 18.5344 13.3422 17.9718 13.8413 17.4078" stroke="black" stroke-width="2" stroke-linecap="round"/>
<path d="M7.99982 4C9.59304 4 10.7373 4.69318 11.4184 5.41313C11.7015 5.71245 12.2985 5.71245 12.5816 5.41313C13.2627 4.69318 14.4069 4 16.0001 4C18.2092 4 20.0084 5.81537 20 8.05646C19.9911 10.449 18.418 12.5104 16.6281 14.4477" stroke="black" stroke-width="2" stroke-linecap="round"/>
</svg>
