<svg width="24" height="24" viewBox="0 0 24 24" fill="none" xmlns="http://www.w3.org/2000/svg">
<path d="M8.5 16H5.5C4.11929 16 3 17.1193 3 18.5C3 19.8807 4.11929 21 5.5 21H8.5C9.88071 21 11 19.8807 11 18.5C11 17.1193 9.88071 16 8.5 16Z" stroke="#2DD4BF" stroke-width="2"/>
<path d="M3 10C3 11.6569 4.34315 13 6 13H8C9.65685 13 11 11.6569 11 10V5C11 3.34315 9.65685 2 8 2H6C4.34315 2 3 3.34315 3 5V5.5" stroke="#2DD4BF" stroke-width="2" stroke-linecap="round"/>
<path d="M19.5 7H16.5C15.1193 7 14 5.88071 14 4.5C14 3.11929 15.1193 2 16.5 2H19.5C20.8807 2 22 3.11929 22 4.5C22 5.88071 20.8807 7 19.5 7Z" stroke="#2DD4BF" stroke-width="2"/>
<path d="M22 18C22 19.6569 20.6569 21 19 21H17C15.3431 21 14 19.6569 14 18V13C14 11.3431 15.3431 10 17 10H19C20.6569 10 22 11.3431 22 13V13.5" stroke="#2DD4BF" stroke-width="2" stroke-linecap="round"/>
</svg>
