<svg width="24" height="24" viewBox="0 0 24 24" fill="none" xmlns="http://www.w3.org/2000/svg">
<path d="M12 2C17.5228 2 22 6.47715 22 12C22 17.5228 17.5228 22 12 22C6.47715 22 2 17.5228 2 12C2 6.47715 6.47715 2 12 2ZM12.0498 17C11.3595 17.0001 10.7998 17.5597 10.7998 18.25C10.7998 18.9403 11.3595 19.4999 12.0498 19.5C12.7402 19.5 13.2998 18.9404 13.2998 18.25C13.2998 17.5596 12.7402 17 12.0498 17ZM15.3936 10.0811C14.886 9.86367 14.2986 10.0989 14.0811 10.6064C14.0253 10.7365 13.9293 10.8458 13.8076 10.918L12.6484 11.6055C11.6266 12.2118 11 13.3118 11 14.5C11 15.0523 11.4477 15.5 12 15.5C12.5523 15.5 13 15.0523 13 14.5C13 14.0178 13.2542 13.5713 13.6689 13.3252L14.8281 12.6377C15.3144 12.3492 15.6962 11.9133 15.9189 11.3936C16.1363 10.886 15.9011 10.2986 15.3936 10.0811ZM11.8955 4.90234C9.64992 4.90243 7.82915 6.72315 7.8291 8.96875V9.80469C7.8291 10.3569 8.27689 10.8046 8.8291 10.8047C9.38139 10.8047 9.8291 10.357 9.8291 9.80469V8.96875C9.82915 7.82772 10.7545 6.90243 11.8955 6.90234H12.7314C13.1842 6.90234 13.611 7.11542 13.8828 7.47754C14.2142 7.91935 14.8414 8.00905 15.2832 7.67773C15.7247 7.34631 15.8136 6.72001 15.4824 6.27832C14.8329 5.41244 13.8138 4.90234 12.7314 4.90234H11.8955Z" fill="#2DD4BF"/>
</svg>
