<svg width="24" height="24" viewBox="0 0 24 24" fill="none" xmlns="http://www.w3.org/2000/svg">
<path d="M6.90654 17C5.36733 14.7273 4.5358 11.7815 4.50113 7.95262C4.48842 6.54842 5.57168 5.4448 6.94784 5.16531C8.20469 4.91005 9.25215 4.5355 10.3576 3.6616C11.3275 2.8949 12.7373 2.89496 13.7034 3.66641C15.052 4.74327 16.2986 5.05978 17.9794 5.33154C18.817 5.46696 19.4776 6.15184 19.5 7" stroke="#2DD4BF" stroke-width="1.5" stroke-linecap="round"/>
<path d="M19.5 10C19.1067 14.387 17.116 17.4977 13.792 20.4808C12.7596 21.4074 11.1964 21.4094 10.1657 20.4809C9.75021 20.1066 9.36195 19.7343 9 19.36" stroke="#2DD4BF" stroke-width="1.5" stroke-linecap="round"/>
<path d="M18.5 12H12.5V20L15.5 18L18 14L18.5 12Z" fill="#2DD4BF" stroke="#2DD4BF" stroke-width="1.5"/>
<path d="M11.5 11V4L9.25 5.4L7.375 6L6.0625 6.6L5.5 8L5.6875 11H11.5Z" fill="#2DD4BF" stroke="#2DD4BF" stroke-width="1.5"/>
</svg>
