<svg width="24" height="24" viewBox="0 0 24 24" fill="none" xmlns="http://www.w3.org/2000/svg">
<path d="M15.3214 20.1L14.9448 20.5314C14.6849 20.8291 14.3089 21 13.9136 21C12.7546 21 12.1201 19.6495 12.86 18.7573L17.4578 13.2136C18.0415 12.5098 18.0415 11.4902 17.4578 10.7864L12.849 5.22944C12.1135 4.34256 12.7442 3 13.8964 3C14.3014 3 14.6853 3.18037 14.9438 3.49208L20.3703 10.035C21.3097 11.1677 21.2889 12.8146 20.3211 13.9231L18.0714 16.5" stroke="#2DD4BF" stroke-width="2" stroke-linecap="round"/>
<path d="M9.46429 7.5L11.5037 10.0956C12.3767 11.2067 12.356 12.7765 11.4539 13.8642L5.94383 20.5079C5.68531 20.8196 5.30138 21 4.89642 21C3.74421 21 3.11347 19.6574 3.84902 18.7706L8.4578 13.2136C9.04148 12.5098 9.04148 11.4902 8.4578 10.7864L3.86001 5.24269C3.12009 4.35054 3.75459 3 4.91365 3C5.30891 3 5.68488 3.17086 5.94482 3.46862L6.32143 3.9" stroke="#2DD4BF" stroke-width="2" stroke-linecap="round"/>
</svg>
