<svg width="24" height="24" viewBox="0 0 24 24" fill="none" xmlns="http://www.w3.org/2000/svg">
<path d="M7 10V18C7 19.6569 8.34315 21 10 21H14C15.6569 21 17 19.6569 17 18" stroke="#2DD4BF" stroke-width="2" stroke-linecap="round"/>
<path d="M17 14V6C17 4.34315 15.6569 3 14 3H10C8.34315 3 7 4.34315 7 6" stroke="#2DD4BF" stroke-width="2" stroke-linecap="round"/>
<path d="M13 5.75C13 6.16421 12.6642 6.5 12.25 6.5C11.8358 6.5 11.5 6.16421 11.5 5.75C11.5 5.33579 11.8358 5 12.25 5C12.6642 5 13 5.33579 13 5.75Z" fill="#2DD4BF"/>
</svg>
