<svg width="24" height="24" viewBox="0 0 24 24" fill="none" xmlns="http://www.w3.org/2000/svg">
<path d="M7 10V18C7 19.6569 8.34315 21 10 21H14C15.6569 21 17 19.6569 17 18V17.5" stroke="#2DD4BF" stroke-width="2" stroke-linecap="round"/>
<path d="M17 6.5V6C17 4.34315 15.6569 3 14 3H10C8.34315 3 7 4.34315 7 6" stroke="#2DD4BF" stroke-width="2" stroke-linecap="round"/>
<path d="M13 5.75C13 6.16421 12.6642 6.5 12.25 6.5C11.8358 6.5 11.5 6.16421 11.5 5.75C11.5 5.33579 11.8358 5 12.25 5C12.6642 5 13 5.33579 13 5.75Z" fill="#2DD4BF"/>
<path d="M20.6154 13.2L21.0755 12.9674C21.4489 12.7786 21.4391 12.2419 21.0589 12.067L20.0442 11.6001C19.9193 11.5426 19.8236 11.4362 19.7795 11.306L19.4737 10.4012C19.3205 9.948 18.6795 9.948 18.5263 10.4012L18.2205 11.306C18.1764 11.4362 18.0807 11.5426 17.9558 11.6001L16.9872 12.0458C16.5992 12.2243 16.5992 12.7757 16.9872 12.9542L17.9558 13.3999C18.0807 13.4574 18.1764 13.5638 18.2205 13.694L18.5279 14.6035C18.6793 15.0513 19.3135 15.049 19.4615 14.6" stroke="#2DD4BF" stroke-width="1.2" stroke-linecap="round"/>
<path d="M13.7136 9.39762L13.0929 9.65927C12.6852 9.83113 12.6852 10.4089 13.0929 10.5807L13.7223 10.8461C13.8557 10.9023 13.9582 11.0136 14.0033 11.1512L14.1335 11.549C14.2839 12.0082 14.9335 12.0082 15.0839 11.549L15.2183 11.1385C15.2609 11.0083 15.3551 10.9013 15.4789 10.8425L16.0492 10.5716C16.4298 10.3908 16.4298 9.84916 16.0492 9.66836L15.4873 9.40147C15.3586 9.34036 15.2621 9.22727 15.222 9.09059L15.0885 8.63535C14.9479 8.15636 14.2694 8.15636 14.1289 8.63535L13.9992 9.07764C13.9569 9.22178 13.852 9.33927 13.7136 9.39762Z" stroke="#2DD4BF"/>
<path d="M14.75 14.4414C14.8342 14.5613 14.9377 14.6657 15.0576 14.75C14.938 14.8342 14.8342 14.938 14.75 15.0576C14.6657 14.9377 14.5613 14.8342 14.4414 14.75C14.5616 14.6656 14.6656 14.5616 14.75 14.4414Z" stroke="#2DD4BF" stroke-width="1.5"/>
</svg>
