<svg width="24" height="24" viewBox="0 0 24 24" fill="none" xmlns="http://www.w3.org/2000/svg">
<path d="M20 15L21.1262 14.4369C21.8784 14.0608 21.8587 12.9806 21.0932 12.6323L18.731 11.5573C18.4805 11.4433 18.288 11.231 18.199 10.9706L17.4463 8.76837C17.1379 7.86628 15.8621 7.86628 15.5537 8.76837L14.801 10.9706C14.712 11.231 14.5195 11.4433 14.269 11.5573L12.0001 12.5898C11.219 12.9453 11.219 14.0547 12.0001 14.4102L14.269 15.4427C14.5195 15.5567 14.712 15.769 14.801 16.0294L15.5419 18.1968C15.8514 19.1026 17.1341 19.0977 17.4368 18.1896L17.5 18" stroke="#2DD4BF" stroke-width="2" stroke-linecap="round"/>
<path d="M3.5 7C2.77615 7.14477 2.69216 8.14614 3.38178 8.40947L5.01641 9.03364C5.28814 9.1374 5.50122 9.35432 5.60011 9.62786L6.05957 10.8987C6.37772 11.7788 7.62228 11.7788 7.94043 10.8987L8.40835 9.60444C8.50232 9.34452 8.69968 9.13508 8.95356 9.02585L10.365 8.41859C11.1714 8.07165 11.1714 6.92835 10.365 6.58141L8.97207 5.98211C8.70741 5.86824 8.50472 5.64576 8.41595 5.37166L7.9377 3.89509C7.64024 2.97672 6.34293 2.9712 6.03767 3.88699L6 4" stroke="#2DD4BF" stroke-width="2" stroke-linecap="round"/>
<path d="M7.11133 17.0303C7.25063 16.6776 7.74937 16.6776 7.88867 17.0303C8.08364 17.5246 8.47538 17.9164 8.96973 18.1113C9.32237 18.2506 9.32237 18.7494 8.96973 18.8887C8.47538 19.0836 8.08364 19.4754 7.88867 19.9697C7.74937 20.3224 7.25063 20.3224 7.11133 19.9697C6.91636 19.4754 6.52462 19.0836 6.03027 18.8887C5.67763 18.7494 5.67763 18.2506 6.03027 18.1113C6.52462 17.9164 6.91636 17.5246 7.11133 17.0303Z" stroke="#2DD4BF" stroke-width="1.5"/>
</svg>
