<svg width="24" height="24" viewBox="0 0 24 24" fill="none" xmlns="http://www.w3.org/2000/svg">
<path d="M10 5.5V5C10 3.89543 10.8954 3 12 3C13.1046 3 14 3.89543 14 5V19C14 20.1046 13.1046 21 12 21C10.8954 21 10 20.1046 10 19V10" stroke="#2DD4BF" stroke-width="2" stroke-linecap="round"/>
<path d="M21 18V19C21 20.1046 20.1046 21 19 21C17.8954 21 17 20.1046 17 19V10C17 8.89543 17.8954 8 19 8C20.1046 8 21 8.89543 21 10V13.5" stroke="#2DD4BF" stroke-width="2" stroke-linecap="round"/>
<path d="M7 15V19C7 20.1046 6.10457 21 5 21C3.89543 21 3 20.1046 3 19V15C3 13.8954 3.89543 13 5 13C6.10457 13 7 13.8954 7 15Z" stroke="#2DD4BF" stroke-width="2"/>
</svg>
