<svg width="24" height="24" viewBox="0 0 24 24" fill="none" xmlns="http://www.w3.org/2000/svg">
<path d="M12 1.9999C17.5228 1.99992 22 6.47711 22 11.9999C22 17.5227 17.5229 21.9999 12 21.9999C6.47719 21.9999 2.00004 17.5228 2.00004 11.9999C2.00009 6.4771 6.47722 1.9999 12 1.9999ZM18.6397 7.20498C18.2009 6.86976 17.5727 6.95384 17.2373 7.39248L11.0664 15.4657C10.8666 15.727 10.4928 15.7767 10.2315 15.5771C9.79303 15.2413 9.16492 15.3242 8.82914 15.7626C8.49341 16.201 8.57633 16.8291 9.01469 17.1649C10.1534 18.0369 11.7841 17.8199 12.6553 16.6806L18.8272 8.60733C19.1624 8.16857 19.0784 7.54034 18.6397 7.20498ZM6.60844 12.8026C6.17004 12.4669 5.54192 12.5499 5.20609 12.9882C4.87048 13.4266 4.95342 14.0547 5.39164 14.3905L5.96293 14.8271C6.40133 15.1626 7.02851 15.0797 7.3643 14.6415C7.70004 14.2031 7.61714 13.575 7.17875 13.2392L6.60844 12.8026Z" fill="#2DD4BF"/>
</svg>
