<svg width="24" height="24" viewBox="0 0 24 24" fill="none" xmlns="http://www.w3.org/2000/svg">
<path d="M21.7458 14.6923C21.912 13.9885 22 13.2545 22 12.5C22 7.25329 17.7467 3 12.5 3C7.25329 3 3 7.25329 3 12.5C3 17.7467 7.25329 22 12.5 22C14.8173 22 16.8382 21.0373 18.5897 19.7917C19 19.5 19.6854 18.8101 19.6854 18.8101" stroke="#2DD4BF" stroke-width="2" stroke-linecap="round"/>
<path d="M16 7L12.8467 9.43617C12.6554 9.58398 12.5292 9.80055 12.495 10.0399L12.4646 10.2522C12.338 11.1374 13.4666 11.6171 14.0161 10.9117L14.6597 10.0854C14.9185 9.75308 15.4516 9.92213 15.4868 10.3419C15.4952 10.4431 15.5394 10.5394 15.6111 10.6111C15.8087 10.8087 16.1392 10.768 16.2829 10.5284L16.676 9.87327C17.061 9.23168 17.9811 9.20469 18.403 9.82262L18.5895 10.0957C18.8429 10.4668 18.8752 10.9461 18.6739 11.3479L18.5732 11.5489C18.5139 11.6674 18.4402 11.7781 18.3539 11.8787L17.8123 12.5093C17.2748 13.1352 16.4301 13.4042 15.6297 13.2045C13.9597 12.7878 12.4877 14.379 13.0329 16.0115L13.3632 17.0004C13.506 17.4279 13.7515 17.8139 14.0783 18.1243L15 19M7.75241 7.60606C8.5 8 8.5 9 8.5 9M8 11.5L7.68941 12.1212C7.56423 12.3715 7.39364 12.5965 7.18633 12.7846L6.60624 13.311C6.28745 13.6002 6.17194 14.0518 6.31269 14.4586C6.42977 14.797 6.70767 15.0549 7.05388 15.1464L7.88817 15.367C8.98205 15.6561 9.77872 16.5979 9.88251 17.7246L10 19M10.5 6C10.8528 6.74752 11.8631 6.8745 12.39 6.23754L13 5.5" stroke="#2DD4BF" stroke-width="1.5" stroke-linecap="round"/>
</svg>
