<svg width="48" height="48" viewBox="0 0 48 48" fill="none" xmlns="http://www.w3.org/2000/svg">
<path d="M13.4142 15.7964C13.0608 17.6946 12.8602 20.2636 12.6564 23.8421C12.5394 25.8965 11.8048 27.8691 10.5355 29.4887L9.53423 30.7663C8.50552 32.079 9.4407 34 11.1084 34H30.5" stroke="black" stroke-width="1.5" stroke-linecap="round"/>
<path d="M17 10.4128C21.3234 8.30632 26.6449 8.36655 31.0313 10.3387C34.4846 11.8914 35.1452 14.2333 35.4203 23.6446C35.4838 25.8162 36.226 27.924 37.5683 29.6323L38.5287 30.8547C39.531 32.1303 38.6223 34 37 34" stroke="black" stroke-width="1.5" stroke-linecap="round"/>
<path d="M35 8C38 9.5 40 13 40 16.5" stroke="black" stroke-width="1.5" stroke-linecap="round"/>
<path d="M37.5 6C39.5 7 41 8.5 42 11" stroke="black" stroke-width="1.5" stroke-linecap="round"/>
<path d="M11.5 6C9.5 7 8 8.5 7 11" stroke="black" stroke-width="1.5" stroke-linecap="round"/>
<path d="M14 8C11 9.5 9 13 9 16.5" stroke="black" stroke-width="1.5" stroke-linecap="round"/>
<path d="M29.5 37C28.6304 38.8919 26.7186 40.2055 24.5 40.2055C22.2814 40.2055 20.3696 38.8919 19.5 37" stroke="black" stroke-width="1.5" stroke-linecap="round"/>
<path d="M21.6736 6.5828C22.0394 5.65586 22.9431 5 24 5C25.0569 5 25.9606 5.65586 26.3264 6.5828" stroke="black" stroke-width="1.5" stroke-linecap="round"/>
</svg>
