<svg width="48" height="48" viewBox="0 0 48 48" fill="none" xmlns="http://www.w3.org/2000/svg">
<circle cx="9" cy="13" r="1.75" stroke="black" stroke-width="1.5"/>
<path d="M14 12L18 15M21.5 12L25.5 15M29 12L33 15M36.5 12L40.5 15" stroke="black" stroke-width="1.5" stroke-linecap="round"/>
<path d="M8 18H39.9034" stroke="black" stroke-width="1.5" stroke-linecap="round"/>
<path d="M43 27V16.5V14C43 11.2386 40.7614 9 38 9H9C6.79086 9 5 10.7909 5 13V16.5V20" stroke="black" stroke-width="1.5" stroke-linecap="round"/>
<path d="M43 33V34C43 36.7614 40.7614 39 38 39H10C7.23858 39 5 36.7614 5 34V26" stroke="black" stroke-width="1.5" stroke-linecap="round"/>
</svg>
