<svg width="48" height="48" viewBox="0 0 48 48" fill="none" xmlns="http://www.w3.org/2000/svg">
<path d="M9 13C9 10.2386 11.2386 8 14 8H20C22.7614 8 25 10.2386 25 13V33C25 35.7614 22.7614 38 20 38H14C11.2386 38 9 35.7614 9 33V18.8002" stroke="black" stroke-width="1.5" stroke-linecap="round"/>
<path d="M41 27C41 24.2386 38.7614 22 36 22H28.5" stroke="black" stroke-width="1.5" stroke-linecap="round"/>
<path d="M26.5 37C27.1403 37.6403 28.0087 38 28.9142 38H36C38.7614 38 41 35.7614 41 33" stroke="black" stroke-width="1.5" stroke-linecap="round"/>
<mask id="path-4-inside-1_1_2" fill="white">
<rect x="12" y="12" width="4" height="4" rx="1"/>
</mask>
<rect x="12" y="12" width="4" height="4" rx="1" stroke="black" stroke-width="3" mask="url(#path-4-inside-1_1_2)"/>
<mask id="path-5-inside-2_1_2" fill="white">
<rect x="18" y="12" width="4" height="4" rx="1"/>
</mask>
<rect x="18" y="12" width="4" height="4" rx="1" stroke="black" stroke-width="3" mask="url(#path-5-inside-2_1_2)"/>
<mask id="path-6-inside-3_1_2" fill="white">
<rect x="12" y="18" width="4" height="4" rx="1"/>
</mask>
<rect x="12" y="18" width="4" height="4" rx="1" stroke="black" stroke-width="3" mask="url(#path-6-inside-3_1_2)"/>
<mask id="path-7-inside-4_1_2" fill="white">
<rect x="18" y="18" width="4" height="4" rx="1"/>
</mask>
<rect x="18" y="18" width="4" height="4" rx="1" stroke="black" stroke-width="3" mask="url(#path-7-inside-4_1_2)"/>
<mask id="path-8-inside-5_1_2" fill="white">
<rect x="12" y="24" width="4" height="4" rx="1"/>
</mask>
<rect x="12" y="24" width="4" height="4" rx="1" stroke="black" stroke-width="3" mask="url(#path-8-inside-5_1_2)"/>
<mask id="path-9-inside-6_1_2" fill="white">
<rect x="18" y="24" width="4" height="4" rx="1"/>
</mask>
<rect x="18" y="24" width="4" height="4" rx="1" stroke="black" stroke-width="3" mask="url(#path-9-inside-6_1_2)"/>
<mask id="path-10-inside-7_1_2" fill="white">
<rect x="12" y="30" width="4" height="4" rx="1"/>
</mask>
<rect x="12" y="30" width="4" height="4" rx="1" stroke="black" stroke-width="3" mask="url(#path-10-inside-7_1_2)"/>
<mask id="path-11-inside-8_1_2" fill="white">
<rect x="18" y="30" width="4" height="4" rx="1"/>
</mask>
<rect x="18" y="30" width="4" height="4" rx="1" stroke="black" stroke-width="3" mask="url(#path-11-inside-8_1_2)"/>
<mask id="path-12-inside-9_1_2" fill="white">
<rect x="28" y="25" width="4" height="4" rx="1"/>
</mask>
<rect x="28" y="25" width="4" height="4" rx="1" stroke="black" stroke-width="3" mask="url(#path-12-inside-9_1_2)"/>
<mask id="path-13-inside-10_1_2" fill="white">
<rect x="34" y="25" width="4" height="4" rx="1"/>
</mask>
<rect x="34" y="25" width="4" height="4" rx="1" stroke="black" stroke-width="3" mask="url(#path-13-inside-10_1_2)"/>
<mask id="path-14-inside-11_1_2" fill="white">
<rect x="28" y="31" width="4" height="4" rx="1"/>
</mask>
<rect x="28" y="31" width="4" height="4" rx="1" stroke="black" stroke-width="3" mask="url(#path-14-inside-11_1_2)"/>
<mask id="path-15-inside-12_1_2" fill="white">
<rect x="34" y="31" width="4" height="4" rx="1"/>
</mask>
<rect x="34" y="31" width="4" height="4" rx="1" stroke="black" stroke-width="3" mask="url(#path-15-inside-12_1_2)"/>
</svg>
