<svg width="48" height="48" viewBox="0 0 48 48" fill="none" xmlns="http://www.w3.org/2000/svg">
<path d="M19.003 12.0144C21.2366 8.21754 26.7354 8.24016 28.9385 12.0544L40.2374 31.6247C42.4505 35.4581 39.6842 40.2497 35.2579 40.2497H12.6622C8.25648 40.2494 5.48782 35.4978 7.66022 31.6648L13.3467 21.6296L13.3536 21.6198L19.003 12.0144ZM24.0001 31.4997C22.8957 31.4998 22.0003 32.3954 22.0001 33.4997C22.0001 34.6043 22.8955 35.4997 24.0001 35.4997C25.1046 35.4997 26.0001 34.6043 26.0001 33.4997C25.9998 32.3954 25.1045 31.4997 24.0001 31.4997ZM24.0001 16.4997C22.6789 16.4998 21.6622 17.6677 21.8438 18.9763L23.0518 27.6745C23.1175 28.1477 23.5224 28.4997 24.0001 28.4997C24.4778 28.4997 24.8826 28.1477 24.9483 27.6745L26.1534 18.9997C26.3348 17.6912 25.3212 16.4997 24.0001 16.4997Z" fill="black"/>
</svg>
