<svg width="48" height="48" viewBox="0 0 48 48" fill="none" xmlns="http://www.w3.org/2000/svg">
<path d="M20 28.0068L23.3833 24.6267" stroke="black" stroke-width="1.5" stroke-linecap="round"/>
<path d="M27.0793 19.8741C26.7862 20.1669 26.786 20.6417 27.0788 20.9348C27.3715 21.2278 27.8464 21.228 28.1394 20.9353L27.6093 20.4047L27.0793 19.8741ZM42.7708 6.00717C42.771 5.59295 42.4354 5.25701 42.0212 5.25681L35.2712 5.25362C34.857 5.25342 34.521 5.58905 34.5208 6.00327C34.5206 6.41748 34.8563 6.75342 35.2705 6.75362L41.2705 6.75646L41.2676 12.7565C41.2674 13.1707 41.6031 13.5066 42.0173 13.5068C42.4315 13.507 42.7674 13.1714 42.7676 12.7572L42.7708 6.00717ZM27.6093 20.4047L28.1394 20.9353L42.5509 6.53739L42.0208 6.00681L41.4907 5.47623L27.0793 19.8741L27.6093 20.4047Z" fill="black"/>
<path d="M29 8.99641H10C7.23858 8.99641 5 11.235 5 13.9964V17.8112" stroke="black" stroke-width="1.5" stroke-linecap="round"/>
<path d="M39 17V31" stroke="black" stroke-width="1.5" stroke-linecap="round"/>
<path d="M5 23.9964V37.9964C5 40.7578 7.23858 42.9964 10 42.9964H34C36.7614 42.9964 39 40.7578 39 37.9964V37.5" stroke="black" stroke-width="1.5" stroke-linecap="round"/>
</svg>
