<svg width="48" height="48" viewBox="0 0 48 48" fill="none" xmlns="http://www.w3.org/2000/svg">
<path d="M7 26C8.58039 24.8293 10.0743 23.795 11.5 22.8972" stroke="black" stroke-width="1.5" stroke-linecap="round"/>
<path d="M17.7326 19.6979C25.2619 16.8732 31.3729 18.9552 40 26" stroke="black" stroke-width="1.5" stroke-linecap="round"/>
<path d="M7 26C16.6713 33.1639 23.1029 35.2235 30.5 32.1189" stroke="black" stroke-width="1.5" stroke-linecap="round"/>
<path d="M36 29.0255C37.2787 28.1463 38.6066 27.1379 40 26" stroke="black" stroke-width="1.5" stroke-linecap="round"/>
<path d="M29.8149 22.1016C30.5633 23.2158 31 24.5569 31 26C31 27.2032 30.6964 28.3355 30.1617 29.3244" stroke="black" stroke-width="1.5" stroke-linecap="round"/>
<path d="M18.0682 29.7184C17.3914 28.641 17 27.3662 17 26C17 24.4933 17.476 23.0979 18.2858 21.9557" stroke="black" stroke-width="1.5" stroke-linecap="round"/>
<circle cx="24" cy="26" r="2.5" fill="black" stroke="black"/>
</svg>
