<svg width="48" height="48" viewBox="0 0 48 48" fill="none" xmlns="http://www.w3.org/2000/svg">
<g clip-path="url(#clip0_1_2)">
<path d="M14 8V6C14 3.23858 11.7614 1 9 1H6C3.23858 1 1 3.23858 1 6V9C1 11.7614 3.23858 14 6 14H8.81966C9.59589 14 10.3615 13.8193 11.0557 13.4721L12 13" stroke="black" stroke-width="1.5" stroke-linecap="round"/>
<rect x="17.75" y="0.75" width="12.5" height="12.5" rx="4.25" stroke="black" stroke-width="1.5"/>
<rect x="34.75" y="0.75" width="12.5" height="12.5" rx="4.25" stroke="black" stroke-width="1.5"/>
<rect x="0.75" y="17.75" width="12.5" height="12.5" rx="4.25" stroke="black" stroke-width="1.5"/>
<rect x="17.75" y="17.75" width="12.5" height="12.5" rx="4.25" stroke="black" stroke-width="1.5"/>
<rect x="34.75" y="17.75" width="12.5" height="12.5" rx="4.25" stroke="black" stroke-width="1.5"/>
<rect x="0.75" y="34.75" width="12.5" height="12.5" rx="4.25" stroke="black" stroke-width="1.5"/>
<rect x="17.75" y="34.75" width="12.5" height="12.5" rx="4.25" stroke="black" stroke-width="1.5"/>
<path d="M34 41V42C34 44.7614 36.2386 47 39 47H42C44.7614 47 47 44.7614 47 42V39C47 36.2386 44.7614 34 42 34H39.0711C37.745 34 36.4732 34.5268 35.5355 35.4645L35.5 35.5" stroke="black" stroke-width="1.5" stroke-linecap="round"/>
</g>
<defs>
<clipPath id="clip0_1_2">
<rect width="48" height="48" fill="white"/>
</clipPath>
</defs>
</svg>
