<svg width="48" height="48" viewBox="0 0 48 48" fill="none" xmlns="http://www.w3.org/2000/svg">
<g clip-path="url(#clip0_1_2)">
<path d="M22 6C22 3.23858 19.7614 1 17 1H6C3.23858 1 1 3.23858 1 6V17C1 19.7614 3.23858 22 6 22H17C19.7614 22 22 19.7614 22 17V12.4545" stroke="black" stroke-width="1.5" stroke-linecap="round"/>
<rect x="26.75" y="0.75" width="20.5" height="20.5" rx="4.25" stroke="black" stroke-width="1.5"/>
<rect x="0.75" y="26.75" width="20.5" height="20.5" rx="4.25" stroke="black" stroke-width="1.5"/>
<path d="M47 42C47 44.7614 44.7614 47 42 47H31C28.2386 47 26 44.7614 26 42V31C26 28.2386 28.2386 26 31 26H42C44.7614 26 47 28.2386 47 31V36" stroke="black" stroke-width="1.5" stroke-linecap="round"/>
</g>
<defs>
<clipPath id="clip0_1_2">
<rect width="48" height="48" fill="white"/>
</clipPath>
</defs>
</svg>
