<svg width="48" height="48" viewBox="0 0 48 48" fill="none" xmlns="http://www.w3.org/2000/svg">
<path d="M5 20V16.5V14C5 11.2386 7.23858 9 10 9H38C40.7614 9 43 11.2386 43 14V16.5V27" stroke="black" stroke-width="1.5" stroke-linecap="round"/>
<path d="M43 33V34C43 36.7614 40.7614 39 38 39H10C7.23858 39 5 36.7614 5 34V26" stroke="black" stroke-width="1.5" stroke-linecap="round"/>
<path d="M12 16V24M12 32V24M12 24H21M21 24V16M21 24V32M29.2247 32.5C33.1691 32.5 36.6385 29.7864 37.5419 25.9468C37.8432 24.6664 37.8432 23.3336 37.5419 22.0532C36.6385 18.2136 33.1691 15.5 29.2247 15.5C28.2782 15.5 27.5 16.2672 27.5 17.2137V30.7863C27.5 31.7328 28.2782 32.5 29.2247 32.5Z" stroke="black" stroke-width="1.5" stroke-linecap="round"/>
</svg>
