<svg width="48" height="48" viewBox="0 0 48 48" fill="none" xmlns="http://www.w3.org/2000/svg">
<path d="M43 32.5V10C43 7.23858 40.7614 5 38 5H10C7.23858 5 5 7.23858 5 10V14.9167" stroke="black" stroke-width="1.5" stroke-linecap="round"/>
<path d="M5 22V38C5 40.7614 7.23858 43 10 43H38C40.7614 43 43 40.7614 43 38" stroke="black" stroke-width="1.5" stroke-linecap="round"/>
<path d="M13.5 40.5L27.1722 29.3136C28.8565 27.9356 31.2387 27.8052 33.0634 28.9912L40 33.5" stroke="black" stroke-width="1.5" stroke-linecap="round"/>
<path d="M21 30L17.1945 26.4663C15.3639 24.7665 12.5595 24.6786 10.6261 26.2605L8.5 28" stroke="black" stroke-width="1.5" stroke-linecap="round"/>
<circle cx="30.5" cy="16.5" r="3.75" stroke="black" stroke-width="1.5"/>
</svg>
