<svg width="48" height="48" viewBox="0 0 48 48" fill="none" xmlns="http://www.w3.org/2000/svg">
<path d="M14 10H26" stroke="black" stroke-width="1.5" stroke-linecap="round"/>
<path d="M32 10H38.5" stroke="black" stroke-width="1.5" stroke-linecap="round"/>
<path d="M14 21C14.1685 21 16.2716 21 18 21" stroke="black" stroke-width="1.5" stroke-linecap="round"/>
<path d="M18 21C22.1601 21 25.8248 21 30 21" stroke="black" stroke-width="1.5" stroke-linecap="round"/>
<path d="M36 21C37.2759 21 37.4558 21 38.5 21" stroke="black" stroke-width="1.5" stroke-linecap="round"/>
<path d="M14 32C14.2836 32 15.3296 32 17 32" stroke="black" stroke-width="1.5" stroke-linecap="round"/>
<circle cx="8" cy="21" r="2.25" stroke="black" stroke-width="1.5"/>
<circle cx="8" cy="10" r="2.25" stroke="black" stroke-width="1.5"/>
<circle cx="8" cy="32" r="2.25" stroke="black" stroke-width="1.5"/>
<path d="M23 32H24.1765" stroke="black" stroke-width="1.5" stroke-linecap="round"/>
<path d="M34.1765 32H34.7647" stroke="black" stroke-width="1.5" stroke-linecap="round"/>
<path d="M36.5294 32H43" stroke="black" stroke-width="1.5" stroke-linecap="round"/>
<path d="M33 22V30.8235" stroke="black" stroke-width="1.5" stroke-linecap="round"/>
<path d="M33 42V35C33 33.3431 31.6569 32 30 32L26.5294 32" stroke="black" stroke-width="1.5" stroke-linecap="round"/>
</svg>
