<svg width="48" height="48" viewBox="0 0 48 48" fill="none" xmlns="http://www.w3.org/2000/svg">
<path d="M40.631 11C38.5093 8.80103 35.8706 7.68335 33.5 7.23836" stroke="black" stroke-width="1.5" stroke-linecap="round"/>
<path d="M26.5 7C18.7019 7.3003 15.8267 8.83162 12.5 10.5C2.04755 15.7421 1.86304 26.3016 10 35" stroke="black" stroke-width="1.5" stroke-linecap="round"/>
<path d="M15 38.4498C17.6028 39.6423 20.4639 40.3596 23.5 40.6642" stroke="black" stroke-width="1.5" stroke-linecap="round"/>
<path d="M35.5 40.0026C36.3922 39.8355 37.2894 39.6446 38.1902 39.431C42.2121 38.4775 46.0931 34.1827 43.66 30.8415C42.8878 29.7811 41.694 29.328 40 29.1366" stroke="black" stroke-width="1.5" stroke-linecap="round"/>
<path d="M30 26C29.5 25.5 29.5 24.5 30 23.5C30.5 22.5 31.5 22 33 21.5" stroke="black" stroke-width="1.5" stroke-linecap="round"/>
<path d="M41.5 21C41.4245 21.151 41.3559 21.2903 41.2916 21.4225C40.6325 22.7773 39.0934 23.4468 37.6655 22.9662C35.8077 22.3409 35.0148 20.0561 36.5506 18.838C36.8695 18.5851 37.2207 18.3366 37.6071 18.1004C38.1334 17.7787 38.5974 17.3504 38.8877 16.8061C39.3383 15.961 39.7012 15.249 40.0193 14.5777C40.713 13.1135 42.8724 13.4208 42.7432 15.0358C42.7175 15.3575 42.6847 15.6784 42.6441 16" stroke="black" stroke-width="1.5" stroke-linecap="round"/>
<path d="M27.0684 39.3064L26.5348 40.5637C25.9413 41.9617 26.5936 43.5761 27.9916 44.1696C29.3897 44.763 31.0041 44.1107 31.5975 42.7127L34.8714 35L37.6539 28.4449C38.2473 27.0468 37.595 25.4324 36.197 24.839C34.7989 24.2455 33.1845 24.8978 32.5911 26.2958L29.1764 34.3404" stroke="black" stroke-width="1.5" stroke-linecap="round"/>
<path d="M19.5736 32.811C20.4017 32.8254 21.116 33.0791 21.602 33.4392C22.0894 33.8004 22.2994 34.2235 22.2927 34.6087C22.286 34.9939 22.0613 35.4094 21.5617 35.7533C21.0633 36.0963 20.3406 36.3249 19.5126 36.3104C18.6845 36.296 17.9702 36.0423 17.4841 35.6822C16.9968 35.321 16.7868 34.8979 16.7935 34.5127C16.8002 34.1275 17.0249 33.712 17.5245 33.3681C18.0229 33.0251 18.7456 32.7965 19.5736 32.811Z" stroke="black" stroke-width="1.5"/>
<path d="M12.524 26.8717C13.3517 26.8428 14.0783 27.0587 14.5826 27.3929C15.0881 27.7281 15.32 28.1397 15.3334 28.5247C15.3469 28.9096 15.1443 29.3364 14.6633 29.706C14.1836 30.0746 13.4739 30.3407 12.6462 30.3696C11.8185 30.3985 11.0919 30.1825 10.5877 29.8483C10.0821 29.5131 9.85024 29.1016 9.83679 28.7166C9.82335 28.3316 10.026 27.9049 10.5069 27.5353C10.9866 27.1667 11.6963 26.9006 12.524 26.8717Z" stroke="black" stroke-width="1.5"/>
<path d="M10.5126 18.811C11.3406 18.7965 12.0633 19.0251 12.5617 19.3681C13.0613 19.712 13.286 20.1275 13.2927 20.5127C13.2994 20.8979 13.0894 21.321 12.602 21.6822C12.116 22.0423 11.4017 22.296 10.5736 22.3104C9.74556 22.3249 9.02286 22.0963 8.52454 21.7533C8.0249 21.4094 7.80024 20.9939 7.79352 20.6087C7.78679 20.2235 7.99682 19.8004 8.48415 19.4392C8.97019 19.0791 9.68448 18.8254 10.5126 18.811Z" stroke="black" stroke-width="1.5"/>
<path d="M16.524 12.8717C17.3517 12.8428 18.0783 13.0587 18.5825 13.3929C19.0881 13.7281 19.32 14.1397 19.3334 14.5247C19.3469 14.9096 19.1443 15.3364 18.6633 15.706C18.1836 16.0746 17.4739 16.3407 16.6462 16.3696C15.8185 16.3985 15.0919 16.1825 14.5877 15.8483C14.0821 15.5131 13.8502 15.1016 13.8368 14.7166C13.8233 14.3316 14.026 13.9049 14.5069 13.5353C14.9866 13.1667 15.6963 12.9006 16.524 12.8717Z" stroke="black" stroke-width="1.5"/>
<path d="M30.986 12.2226C32.8756 11.9906 34.2859 13.0579 34.4342 14.2629C34.5821 15.4681 33.472 16.8457 31.5821 17.0777C29.6922 17.3098 28.2818 16.2417 28.1338 15.0365C27.9862 13.8314 29.0963 12.4546 30.986 12.2226Z" stroke="black" stroke-width="1.5"/>
</svg>
