<svg width="48" height="48" viewBox="0 0 48 48" fill="none" xmlns="http://www.w3.org/2000/svg">
<path d="M38 41H40.5C41.8807 41 43 39.8807 43 38.5C43 37.1193 41.8807 36 40.5 36H7.5C6.11929 36 5 37.1193 5 38.5C5 39.8807 6.11929 41 7.5 41H32" stroke="black" stroke-width="1.5" stroke-linecap="round"/>
<path d="M15 13H41.3411C42.2573 13 43 12.2573 43 11.3411C43 10.5896 42.4947 9.93193 41.7686 9.73828L25.2883 5.34355C24.4442 5.11845 23.5558 5.11845 22.7117 5.34355L6.23144 9.73828C5.50526 9.93193 5 10.5896 5 11.3411C5 12.2573 5.7427 13 6.65886 13H9" stroke="black" stroke-width="1.5" stroke-linecap="round"/>
<path d="M9 33L10 16M13 16L14 33M21.5 33L22.5 16M25.5 16L26.5 33M34 33L35 16M38 16L39 33" stroke="black" stroke-width="1.5" stroke-linecap="round"/>
</svg>
