<svg width="48" height="48" viewBox="0 0 48 48" fill="none" xmlns="http://www.w3.org/2000/svg">
<path d="M15 36.6187V38.5213C15 40.817 16.5577 42.8568 18.8176 43.2608C22.5167 43.9223 25.5148 43.9398 29.2185 43.2718C31.4629 42.867 33 40.8345 33 38.5539V36.6187C33 32.3804 31.6536 28.2517 29.155 24.8282L28.8465 24.4055C26.4499 21.1217 21.5501 21.1217 19.1535 24.4055L18.845 24.8282C16.3464 28.2517 15 32.3804 15 36.6187Z" stroke="black" stroke-width="1.5"/>
<circle cx="24" cy="13.7649" r="5.25" stroke="black" stroke-width="1.5"/>
<path d="M34 25.6711L34.5233 24.9163C36.2794 22.3834 40.0017 22.3174 41.8464 24.7866C42.9397 26.25 43.7572 27.9002 44.259 29.6566L44.5 30.5" stroke="black" stroke-width="1.5" stroke-linecap="round"/>
<path d="M45 36.5C45 38.3801 43.7471 40.067 41.8975 40.404C39.869 40.7737 38.108 40.8566 36.2115 40.6653" stroke="black" stroke-width="1.5" stroke-linecap="round"/>
<circle cx="37.5" cy="16.2649" r="3.75" stroke="black" stroke-width="1.5"/>
<path d="M5 29.5L4.20962 31.2784C3.41209 33.0728 3 35.0146 3 36.9783C3 38.5732 4.07143 39.9912 5.63589 40.3011C7.63433 40.697 9.35528 40.8424 11.1608 40.7259" stroke="black" stroke-width="1.5" stroke-linecap="round"/>
<path d="M8 24L8.35526 23.6447C9.31161 22.6884 10.81 22.54 11.9354 23.2902C12.6363 23.7575 13.2244 24.3751 13.657 25.098L14 25.6711" stroke="black" stroke-width="1.5" stroke-linecap="round"/>
<circle cx="10.5" cy="16.2649" r="3.75" stroke="black" stroke-width="1.5"/>
</svg>
