<svg width="48" height="48" viewBox="0 0 48 48" fill="none" xmlns="http://www.w3.org/2000/svg">
<path d="M23.5 3C34.8218 3 44 12.1782 44 23.5C44 34.8218 34.8218 44 23.5 44C12.1782 44 3 34.8218 3 23.5C3 12.1782 12.1782 3 23.5 3ZM23 34C22.1716 34 21.5 34.6716 21.5 35.5C21.5 36.3284 22.1716 37 23 37C23.8284 37 24.5 36.3284 24.5 35.5C24.5 34.6716 23.8284 34 23 34ZM30.3164 18.0518C29.7926 17.8771 29.2265 18.1598 29.0518 18.6836C28.7894 19.4706 28.2963 20.161 27.6367 20.6641L26.8008 21.3018C23.7757 23.6091 22 27.1954 22 31C22 31.5523 22.4477 32 23 32C23.5523 32 24 31.5523 24 31C24 27.8192 25.4846 24.8206 28.0137 22.8916L28.8496 22.2539C29.8281 21.5075 30.559 20.4839 30.9482 19.3164C31.1229 18.7926 30.8402 18.2265 30.3164 18.0518ZM23.2861 10C19.2623 10 16 13.2623 16 17.2861V19C16 19.5523 16.4477 20 17 20C17.5523 20 18 19.5523 18 19V17.2861C18 14.3669 20.3669 12 23.2861 12H25C26.259 12 27.4448 12.5925 28.2002 13.5996C28.5315 14.0414 29.1578 14.131 29.5996 13.7998C30.0414 13.4685 30.131 12.8422 29.7998 12.4004C28.6667 10.8896 26.8885 10 25 10H23.2861Z" fill="black"/>
</svg>
