<svg width="48" height="48" viewBox="0 0 48 48" fill="none" xmlns="http://www.w3.org/2000/svg">
<path d="M19.5 27.9619L21.4462 29.7898C22.6007 30.8741 24.3993 30.8741 25.5538 29.7898L33.0942 22.7078C34.4151 21.4672 33.5372 19.25 31.725 19.25H30.3276C29.223 19.25 28.3276 18.3546 28.3276 17.25V9.82759C28.3276 7.16138 26.1662 5 23.5 5C20.8338 5 18.6724 7.16138 18.6724 9.82759V17.25C18.6724 18.3546 17.777 19.25 16.6724 19.25H15.275C13.4628 19.25 12.5849 21.4672 13.9058 22.7078L15 23.7355" stroke="black" stroke-width="1.5" stroke-linecap="round"/>
<path d="M34 35.5H37.25C39.3211 35.5 41 37.1789 41 39.25C41 41.3211 39.3211 43 37.25 43H9.75C7.67893 43 6 41.3211 6 39.25C6 37.1789 7.67893 35.5 9.75 35.5H27" stroke="black" stroke-width="1.5" stroke-linecap="round"/>
</svg>
