<svg width="48" height="48" viewBox="0 0 48 48" fill="none" xmlns="http://www.w3.org/2000/svg">
<path d="M12 36C8.53888 30.8399 6.74531 24.0783 6.83953 15.1915C6.86433 12.8527 8.65007 10.978 10.9537 10.573C14.9509 9.87022 17.8956 8.87693 21.4033 5.27477C22.2712 4.3835 23.7288 4.38342 24.5943 5.27709C28.1304 8.92861 31.0256 9.89811 35.0741 10.6028C37.2688 10.9849 38.965 12.773 39.0233 15" stroke="black" stroke-width="1.5" stroke-linecap="round"/>
<path d="M39.0233 21C38.078 30.6261 34.0132 37.3026 25.8697 43.8255C24.1918 45.1695 21.8118 45.1681 20.1193 43.8425C18.6871 42.7208 17.3839 41.6144 16.2033 40.5" stroke="black" stroke-width="1.5" stroke-linecap="round"/>
<path d="M38.5 23H23V44L31.5 38L37 29L38.5 23Z" fill="black" stroke="black" stroke-width="1.5"/>
<path d="M23 23V5.5L17 9L12 10.5L8.5 12L7 15.5L7.5 23H23Z" fill="black" stroke="black" stroke-width="1.5"/>
</svg>
