<svg width="48" height="48" viewBox="0 0 48 48" fill="none" xmlns="http://www.w3.org/2000/svg">
<path d="M29.0357 38.35L28.1844 39.205C27.6777 39.7139 26.9891 40 26.2709 40C23.9013 40 22.6809 37.1657 24.3093 35.4442L34.3072 24.8744C35.0365 24.1033 35.0365 22.8967 34.3072 22.1256L24.2856 11.5308C22.6662 9.81871 23.8799 7 26.2365 7C26.9747 7 27.6802 7.30382 28.1875 7.84006L39.6656 19.9748C41.5231 21.9386 41.4835 25.0231 39.5763 26.9386L34.7857 31.75" stroke="black" stroke-width="1.5" stroke-linecap="round"/>
<path d="M18.9286 15.25L23.1343 20.1567C24.7724 22.0678 24.7345 24.8987 23.0457 26.7652L11.8521 39.1372C11.355 39.6866 10.6487 40 9.90787 40C7.63468 40 6.43856 37.3048 7.96367 35.6191L17.7145 24.8418C18.4038 24.08 18.4038 22.92 17.7145 22.1582L7.98616 11.4058C6.45239 9.71054 7.65531 7 9.9414 7C10.663 7 11.3531 7.29575 11.8508 7.8183L12.6429 8.65" stroke="black" stroke-width="1.5" stroke-linecap="round"/>
</svg>
