<svg width="48" height="48" viewBox="0 0 48 48" fill="none" xmlns="http://www.w3.org/2000/svg">
<path d="M32.5 32.5C31.9907 34.028 29.8506 34.0857 29.2597 32.5874L27.6417 28.485C27.4384 27.9696 27.0304 27.5616 26.515 27.3583L22.7174 25.8605C21.0291 25.1947 21.0291 22.8053 22.7174 22.1395L26.515 20.6417C27.0304 20.4384 27.4384 20.0304 27.6417 19.515L29.1395 15.7174C29.8053 14.0291 32.1947 14.0291 32.8605 15.7174L34.3583 19.515C34.5616 20.0304 34.9696 20.4384 35.485 20.6417L39.3839 22.1794C41.0587 22.84 41.0763 25.2039 39.4116 25.8893L35.8699 27.3477C35.6257 27.4482 35.4042 27.5958 35.2175 27.7825C35.1582 27.8418 35.0866 27.9134 35 28" stroke="black" stroke-width="1.5" stroke-linecap="round"/>
<path d="M9 11.5L8.67518 11.6299C6.99451 12.3022 7.00027 14.6833 8.68417 15.3474L11.4393 16.434C11.9547 16.6373 12.3627 17.0453 12.566 17.5607L13.6395 20.2826C14.3053 21.9709 16.6947 21.9709 17.3605 20.2826L18.434 17.5607C18.6373 17.0453 19.0453 16.6373 19.5607 16.434L22.2826 15.3605C23.9709 14.6947 23.9709 12.3053 22.2826 11.6395L19.5607 10.566C19.0453 10.3627 18.6373 9.9547 18.434 9.43926L17.3096 6.58838C16.6506 4.91738 14.2938 4.89485 13.6029 6.55293L13 8" stroke="black" stroke-width="1.5" stroke-linecap="round"/>
<path d="M13.8369 28.9922C14.2532 27.9374 15.7468 27.9374 16.1631 28.9922L16.2461 29.2041C16.5256 29.9128 17.0872 30.4744 17.7959 30.7539L18.0078 30.8369C19.0626 31.2532 19.0626 32.7468 18.0078 33.1631L17.7959 33.2461C17.0872 33.5256 16.5256 34.0872 16.2461 34.7959L16.1631 35.0078C15.7468 36.0626 14.2532 36.0626 13.8369 35.0078L13.7539 34.7959C13.4744 34.0872 12.9128 33.5256 12.2041 33.2461L11.9922 33.1631C10.9374 32.7468 10.9374 31.2532 11.9922 30.8369L12.2041 30.7539C12.9128 30.4744 13.4744 29.9128 13.7539 29.2041L13.8369 28.9922Z" stroke="black" stroke-width="1.5"/>
</svg>
