<svg width="48" height="48" viewBox="0 0 48 48" fill="none" xmlns="http://www.w3.org/2000/svg">
<path d="M10 16.5C7.82269 16.5 6.75365 19.1515 8.32206 20.6617L13.5478 25.6935C14.3593 26.4749 14.6646 27.645 14.3384 28.7233L12.3924 35.1556C11.5687 37.8781 14.6427 40.1114 16.9774 38.4868L22.3453 34.7515C23.3459 34.0551 24.6685 34.0336 25.6913 34.697L31.5301 38.4842C33.5974 39.8251 36.2136 37.8586 35.5 35.5" stroke="black" stroke-width="1.5" stroke-linecap="round"/>
<path d="M16 16.2334H16.224C17.5012 16.2334 18.6383 15.4248 19.0577 14.2184L21.1663 8.15216C22.1002 5.46548 25.8998 5.46548 26.8337 8.15216L28.9573 14.2616C29.3693 15.4468 30.4754 16.2504 31.7299 16.276L38.1965 16.4077C41.0403 16.4657 42.2144 20.0793 39.9478 21.7977L34.7937 25.7054C33.7938 26.4634 33.3713 27.7637 33.7347 28.9647L33.7453 29" stroke="black" stroke-width="1.5" stroke-linecap="round"/>
</svg>
