<svg width="48" height="48" viewBox="0 0 48 48" fill="none" xmlns="http://www.w3.org/2000/svg">
<path d="M19 11.0517V9.5C19 7.01472 21.0147 5 23.5 5C25.9853 5 28 7.01472 28 9.5V39.5C28 41.9853 25.9853 44 23.5 44C21.0147 44 19 41.9853 19 39.5V19.7931" stroke="black" stroke-width="1.5" stroke-linecap="round"/>
<path d="M42 38V39.5C42 41.9853 39.9853 44 37.5 44C35.0147 44 33 41.9853 33 39.5V20.5C33 18.0147 35.0147 16 37.5 16C39.9853 16 42 18.0147 42 20.5V28.6667" stroke="black" stroke-width="1.5" stroke-linecap="round"/>
<path d="M14 31.5V39.5C14 41.9853 11.9853 44 9.5 44C7.01472 44 5 41.9853 5 39.5V31.5C5 29.0147 7.01472 27 9.5 27C11.9853 27 14 29.0147 14 31.5Z" stroke="black" stroke-width="1.5"/>
</svg>
