<svg width="48" height="48" viewBox="0 0 48 48" fill="none" xmlns="http://www.w3.org/2000/svg">
<path d="M13 21H42C44.7614 21 47 18.7614 47 16V12.8182V12.5V8C47 5.23858 44.7614 3 42 3H6C3.23858 3 1 5.23858 1 8V16C1 18.7614 3.23858 21 6 21" stroke="black" stroke-width="1.5" stroke-linecap="round"/>
<path d="M47 39C47 41.7614 44.7614 44 42 44H6C3.23858 44 1 41.7614 1 39V31C1 28.2386 3.23858 26 6 26H42C44.7614 26 47 28.2386 47 31V33" stroke="black" stroke-width="1.5" stroke-linecap="round"/>
</svg>
