<svg width="48" height="48" viewBox="0 0 48 48" fill="none" xmlns="http://www.w3.org/2000/svg">
<path d="M21.1235 24.5L23.6676 35.4298C24.2936 38.1193 26.9814 39.7921 29.671 39.1661L37.6136 37.3173C40.2198 36.7107 41.8407 34.1062 41.2341 31.5" stroke="black" stroke-width="1.5" stroke-linecap="round"/>
<path d="M40 25L36.7185 11.7821C36.0601 9.12978 33.394 7.49749 30.7323 8.11704L22.8698 9.94716C20.1803 10.5732 18.5075 13.261 19.1335 15.9505L19.727 18.5" stroke="black" stroke-width="1.5" stroke-linecap="round"/>
<path d="M17.5 21L14.4616 31.477C13.6855 34.1532 15.2468 36.9474 17.9327 37.6892L21.5951 38.7008" stroke="black" stroke-width="1.5" stroke-linecap="round"/>
<path d="M16 17L8.81283 28.9741C7.41307 31.3062 8.13419 34.3294 10.4359 35.7785L12.8246 37.2825" stroke="black" stroke-width="1.5" stroke-linecap="round"/>
<circle cx="23.403" cy="14.4434" r="0.75" transform="rotate(-13.1031 23.403 14.4434)" stroke="black" stroke-width="1.5"/>
</svg>
