<svg width="48" height="48" viewBox="0 0 48 48" fill="none" xmlns="http://www.w3.org/2000/svg">
<path d="M12 15.5L13.6449 36.8835C13.8453 39.4885 16.0175 41.5 18.6302 41.5H30.6806C32.8518 41.5 34.6725 39.8608 34.8998 37.7016" stroke="black" stroke-width="1.5" stroke-linecap="round"/>
<path d="M18 9.5H38.25C39.2165 9.5 40 10.2835 40 11.25C40 12.2165 39.2165 13 38.25 13H37.5H12H11.25C10.2835 13 9.5 12.2165 9.5 11.25C9.5 10.2835 10.2835 9.5 11.25 9.5H12" stroke="black" stroke-width="1.5" stroke-linecap="round"/>
<path d="M37 15.5L35.5526 31.5" stroke="black" stroke-width="1.5" stroke-linecap="round"/>
<path d="M17 40.5L35.5 23" stroke="black" stroke-width="1.5" stroke-linecap="round"/>
<path d="M14 38L36.5 16" stroke="black" stroke-width="1.5" stroke-linecap="round"/>
<path d="M14 32.5L31.5 15.5" stroke="black" stroke-width="1.5" stroke-linecap="round"/>
<path d="M13.5 27.5L26.5 15.5" stroke="black" stroke-width="1.5" stroke-linecap="round"/>
<path d="M13 22.5L20.5 15.5" stroke="black" stroke-width="1.5" stroke-linecap="round"/>
<path d="M13 17.5L15 15.5" stroke="black" stroke-width="1.5" stroke-linecap="round"/>
<path d="M22.5 41L36 27.5" stroke="black" stroke-width="1.5"/>
<path d="M28 41L33 35.5" stroke="black" stroke-width="1.5" stroke-linecap="round"/>
<path d="M24 15.5L35.5 26.5" stroke="black" stroke-width="1.5" stroke-linecap="round"/>
<path d="M17 15.5L33 30.5" stroke="black" stroke-width="1.5" stroke-linecap="round"/>
<path d="M13 17L33 35.5" stroke="black" stroke-width="1.5" stroke-linecap="round"/>
<path d="M13 22.5L33 40.5" stroke="black" stroke-width="1.5" stroke-linecap="round"/>
<path d="M13.5 28L28 41" stroke="black" stroke-width="1.5" stroke-linecap="round"/>
<path d="M14 34L22 41" stroke="black" stroke-width="1.5" stroke-linecap="round"/>
<path d="M29.5 15.5L36 22" stroke="black" stroke-width="1.5" stroke-linecap="round"/>
<path d="M35.5 15.5L36.5 16" stroke="black" stroke-width="1.5" stroke-linecap="round"/>
</svg>
