<svg width="48" height="48" viewBox="0 0 48 48" fill="none" xmlns="http://www.w3.org/2000/svg">
<path d="M36 38.4672C32.6155 41.2969 28.2566 43 23.5 43C12.7304 43 4 34.2696 4 23.5C4 12.7304 12.7304 4 23.5 4C34.2696 4 43 12.7304 43 23.5C43 25.0488 42.8194 26.5554 42.4782 28" stroke="black" stroke-width="1.5" stroke-linecap="round"/>
<path d="M38.8715 35.5C38.0214 36.5875 37.0583 37.5824 36 38.4672" stroke="black" stroke-width="1.5" stroke-linecap="round"/>
<path d="M33.5 10L24.1792 17.4567C23.7439 17.8049 23.4628 18.3101 23.3964 18.8636L23.0389 21.8424C22.8291 23.5908 25.2032 24.3224 26.0138 22.7591L27.5367 19.8221C27.9104 19.1014 29 19.3671 29 20.1789C29 20.3845 29.0817 20.5817 29.227 20.727L29.2722 20.7722C29.797 21.297 30.695 21.0251 30.8405 20.2973L31.1754 18.6231C31.4903 17.0484 33.5286 16.6018 34.4731 17.9006L35.1584 18.8428C35.6754 19.5537 35.7532 20.4935 35.3601 21.2798L35.1684 21.6632C35.0566 21.8869 34.9177 22.096 34.7549 22.2859L33.6993 23.5174C32.6579 24.7325 31.0193 25.2548 29.4668 24.8667C26.2324 24.0581 23.3796 27.1388 24.4339 30.3016L25.3635 33.0906C25.4543 33.363 25.5685 33.6271 25.7046 33.88L29 40M13 11C13.5 12 12.5 14 13 15M15 20C15 21 14.5946 22.2668 13 23.5L10 26C8.34207 27.3263 9.27994 30 11.4031 30H14.4909C16.3984 30 17.9158 31.5994 17.8156 33.5042L17.5 39.5M18.5 7C19.6614 10.252 23.8142 11.1858 26.2559 8.74405L28 7" stroke="black" stroke-width="1.5" stroke-linecap="round"/>
</svg>
