<svg width="24" height="24" viewBox="0 0 24 24" fill="none" xmlns="http://www.w3.org/2000/svg">
<path d="M10.5 7H18.7273C19.9825 7 21 5.98247 21 4.72727V4.63889C21 3.18147 19.8185 2 18.3611 2H5.5C4.11929 2 3 3.11929 3 4.5C3 5.88071 4.11929 7 5.5 7H6" stroke="black" stroke-width="1.5" stroke-linecap="round"/>
<path d="M18 14H18.5C19.8807 14 21 12.8807 21 11.5C21 10.1193 19.8807 9 18.5 9H5.5C4.11929 9 3 10.1193 3 11.5C3 12.8807 4.11929 14 5.5 14H18Z" stroke="black" stroke-width="1.5"/>
<circle cx="0.75" cy="0.75" r="0.75" transform="matrix(-1 0 0 1 19 3.8)" fill="black"/>
<circle cx="0.75" cy="0.75" r="0.75" transform="matrix(-1 0 0 1 19 10.8)" fill="black"/>
<circle cx="0.75" cy="0.75" r="0.75" transform="matrix(-1 0 0 1 19 17.8)" fill="black"/>
<mask id="path-6-inside-1_1_2" fill="white">
<path d="M14 4.55C14 4.13579 13.6642 3.8 13.25 3.8H6.75C6.33579 3.8 6 4.13579 6 4.55C6 4.96421 6.33579 5.3 6.75 5.3H13.25C13.6642 5.3 14 4.96421 14 4.55Z"/>
</mask>
<path d="M13.25 3.8V5.3H6.75V3.8V2.3H13.25V3.8ZM6.75 5.3V3.8H13.25V5.3V6.8H6.75V5.3ZM13.25 5.3V3.8C12.8358 3.8 12.5 4.13579 12.5 4.55H14H15.5C15.5 5.79264 14.4926 6.8 13.25 6.8V5.3ZM6 4.55H7.5C7.5 4.13579 7.16421 3.8 6.75 3.8V5.3V6.8C5.50736 6.8 4.5 5.79264 4.5 4.55H6ZM6.75 3.8V5.3C7.16421 5.3 7.5 4.96421 7.5 4.55H6H4.5C4.5 3.30736 5.50736 2.3 6.75 2.3V3.8ZM13.25 3.8V2.3C14.4926 2.3 15.5 3.30736 15.5 4.55H14H12.5C12.5 4.96421 12.8358 5.3 13.25 5.3V3.8Z" fill="black" mask="url(#path-6-inside-1_1_2)"/>
<path d="M18 16H18.5C19.8807 16 21 17.1193 21 18.5C21 19.8807 19.8807 21 18.5 21H5.5C4.11929 21 3 19.8807 3 18.5C3 17.1193 4.11929 16 5.5 16H13.5" stroke="black" stroke-width="1.5" stroke-linecap="round"/>
<mask id="path-9-inside-2_1_2" fill="white">
<path d="M14 18.55C14 18.1358 13.6642 17.8 13.25 17.8H6.75C6.33579 17.8 6 18.1358 6 18.55C6 18.9642 6.33579 19.3 6.75 19.3H13.25C13.6642 19.3 14 18.9642 14 18.55Z"/>
</mask>
<path d="M13.25 17.8V19.3H6.75V17.8V16.3H13.25V17.8ZM6.75 19.3V17.8H13.25V19.3V20.8H6.75V19.3ZM13.25 19.3V17.8C12.8358 17.8 12.5 18.1358 12.5 18.55H14H15.5C15.5 19.7926 14.4926 20.8 13.25 20.8V19.3ZM6 18.55H7.5C7.5 18.1358 7.16421 17.8 6.75 17.8V19.3V20.8C5.50736 20.8 4.5 19.7926 4.5 18.55H6ZM6.75 17.8V19.3C7.16421 19.3 7.5 18.9642 7.5 18.55H6H4.5C4.5 17.3074 5.50736 16.3 6.75 16.3V17.8ZM13.25 17.8V16.3C14.4926 16.3 15.5 17.3074 15.5 18.55H14H12.5C12.5 18.9642 12.8358 19.3 13.25 19.3V17.8Z" fill="black" mask="url(#path-9-inside-2_1_2)"/>
<mask id="path-11-inside-3_1_2" fill="white">
<path d="M14 11.55C14 11.1358 13.6642 10.8 13.25 10.8H6.75C6.33579 10.8 6 11.1358 6 11.55C6 11.9642 6.33579 12.3 6.75 12.3H13.25C13.6642 12.3 14 11.9642 14 11.55Z"/>
</mask>
<path d="M13.25 10.8V12.3H6.75V10.8V9.3H13.25V10.8ZM6.75 12.3V10.8H13.25V12.3V13.8H6.75V12.3ZM13.25 12.3V10.8C12.8358 10.8 12.5 11.1358 12.5 11.55H14H15.5C15.5 12.7926 14.4926 13.8 13.25 13.8V12.3ZM6 11.55H7.5C7.5 11.1358 7.16421 10.8 6.75 10.8V12.3V13.8C5.50736 13.8 4.5 12.7926 4.5 11.55H6ZM6.75 10.8V12.3C7.16421 12.3 7.5 11.9642 7.5 11.55H6H4.5C4.5 10.3074 5.50736 9.3 6.75 9.3V10.8ZM13.25 10.8V9.3C14.4926 9.3 15.5 10.3074 15.5 11.55H14H12.5C12.5 11.9642 12.8358 12.3 13.25 12.3V10.8Z" fill="black" mask="url(#path-11-inside-3_1_2)"/>
</svg>
