<svg width="24" height="24" viewBox="0 0 24 24" fill="none" xmlns="http://www.w3.org/2000/svg">
<path d="M6.8507 10.1256C6.77765 10.8287 6.72047 11.6675 6.66422 12.6762C6.59651 13.8904 6.18111 15.0604 5.4565 16.037C4.85425 16.8487 5.43364 18 6.44434 18H14.5" stroke="black" stroke-width="2" stroke-linecap="round"/>
<path d="M18 18C18.788 18 19.2144 17.077 18.7037 16.477L18.4906 16.2267C17.6882 15.284 17.2423 14.0894 17.1977 12.8522C17.0288 8.15995 16.57 7.51703 14.0912 6.75659C12.4112 6.24124 10.5717 6.21416 9 7" stroke="black" stroke-width="2" stroke-linecap="round"/>
<path d="M14 20.445C13.5686 20.796 13.0534 21 12.5 21C11.9466 21 11.4314 20.796 11 20.445" stroke="black" stroke-width="1.5" stroke-linecap="round"/>
<path d="M13 4C12.4477 3.44772 11.5523 3.44772 11 4" stroke="black" stroke-width="1.5" stroke-linecap="round"/>
</svg>
