<svg width="24" height="24" viewBox="0 0 24 24" fill="none" xmlns="http://www.w3.org/2000/svg">
<path d="M16.5143 19.4898C15.2584 20.4378 13.6948 21 12 21C7.85786 21 4.5 17.6421 4.5 13.5C4.5 12.2359 4.81273 11.0449 5.36505 10" stroke="black" stroke-width="2" stroke-linecap="round"/>
<path d="M8.14996 7.06227C9.27542 6.38775 10.5924 6 12 6C16.1421 6 19.5 9.35786 19.5 13.5C19.5 14.4511 19.3229 15.3609 19 16.1982" stroke="black" stroke-width="2" stroke-linecap="round"/>
<path d="M9 3H15" stroke="black" stroke-width="2" stroke-linecap="round"/>
<path d="M19 6L20 5M19.5 4.5L20.5 5.5" stroke="black" stroke-width="2" stroke-linecap="round" stroke-linejoin="round"/>
<path d="M13 9.5C13 8.94772 12.5523 8.5 12 8.5C11.4477 8.5 11 8.94772 11 9.5H12H13ZM12 9.5H11V12H12H13V9.5H12Z" fill="black"/>
<circle cx="12" cy="13.5" r="1.25" stroke="black" stroke-width="1.5"/>
</svg>
