<svg width="24" height="24" viewBox="0 0 24 24" fill="none" xmlns="http://www.w3.org/2000/svg">
<path d="M15.4179 8.13793L15.2888 7.54129C15.0078 6.24283 14.066 5.18708 12.8079 4.76024L12.7372 4.73626C11.4098 4.28588 9.94165 4.63279 8.95618 5.62972L8.86719 5.71975C6.64503 7.96776 8.18331 11.7837 11.3433 11.8621L12.7494 11.9078C14.3285 11.9592 15.5819 13.2541 15.5819 14.834" stroke="black" stroke-width="2" stroke-linecap="round"/>
<path d="M13.672 18.5646C13.5292 18.6169 13.399 18.6612 13.274 18.701C12.5702 18.9248 11.8168 18.9326 11.0898 18.8025L10.2963 18.6605C8.48998 18.3373 7.13284 16.8302 7 15" stroke="black" stroke-width="2" stroke-linecap="round"/>
<path d="M12 3V5.5" stroke="black" stroke-width="2" stroke-linecap="round"/>
<path d="M12 9.5V21" stroke="black" stroke-width="2" stroke-linecap="round"/>
</svg>
