<svg width="24" height="24" viewBox="0 0 24 24" fill="none" xmlns="http://www.w3.org/2000/svg">
<path d="M5.92399 11.2836L3.5283 15.5244C2.39855 17.5243 3.84342 20 6.14033 20H13" stroke="black" stroke-width="2" stroke-linecap="round"/>
<path d="M17.1071 20H17.7731C20.0893 20 21.5318 17.4867 20.3635 15.4868L14.4777 5.41143C13.3227 3.43425 10.4677 3.42782 9.30377 5.39978L8 7.6087" stroke="black" stroke-width="2" stroke-linecap="round"/>
<path d="M12.5375 11.4687L12.3774 12.6696C12.3522 12.8587 12.1908 13 12 13C11.8092 13 11.6478 12.8587 11.6226 12.6696L11.1322 8.99123C11.0622 8.46637 11.4705 8 12 8C12.5295 8 12.9378 8.46637 12.8678 8.99123L12.8611 9.04167" stroke="black" stroke-width="1.5" stroke-linecap="round"/>
<path d="M12.05 15.75C12.3261 15.75 12.55 15.9739 12.55 16.25C12.55 16.5261 12.3261 16.75 12.05 16.75C11.7739 16.75 11.55 16.5261 11.55 16.25C11.55 15.9739 11.7739 15.75 12.05 15.75Z" stroke="black" stroke-width="1.5"/>
</svg>
