<svg width="24" height="24" viewBox="0 0 24 24" fill="none" xmlns="http://www.w3.org/2000/svg">
<path d="M4.47368 18.2143L3.25737 20.1598C3.11658 20.385 3.19009 20.682 3.41967 20.8155C3.6061 20.924 3.84239 20.8917 3.99289 20.7372L6.7149 17.9433C7.38658 17.2539 8.47994 17.2095 9.20523 17.8423C9.97617 18.5149 11.1506 18.4167 11.7992 17.6254L16 12.5" stroke="black" stroke-width="2" stroke-linecap="round"/>
<path d="M18.0307 9.79858L18.8825 8.81026C19.0348 8.63354 19.2891 8.58565 19.4953 8.69484L20.0832 9.00626C20.4533 9.20225 20.8859 8.88376 20.8087 8.4722L20.0918 4.65127C19.9266 3.77112 19.0321 3.23081 18.1762 3.49426L13.9267 4.8023C13.4981 4.93425 13.4465 5.5203 13.8456 5.72504L14.253 5.93401C14.4872 6.05417 14.5891 6.3326 14.4836 6.57376C13.994 7.69241 12.6278 10.7773 11.5029 12.9716C11.1548 13.6507 10.2964 13.8517 9.66291 13.4262C9.02118 12.9953 8.15029 13.1791 7.73745 13.8326L7 15" stroke="black" stroke-width="2" stroke-linecap="round"/>
</svg>
