<svg width="24" height="24" viewBox="0 0 24 24" fill="none" xmlns="http://www.w3.org/2000/svg">
<path d="M3.98549 8C3.35525 9.21593 3 10.5919 3 12.0492C3 16.9926 7.08783 21 12.1304 21C14.3655 21 16.4129 20.2127 18 18.9057" stroke="black" stroke-width="2" stroke-linecap="round"/>
<path d="M6.87194 4.68069C8.33268 3.62212 10.1169 3 12.0432 3C16.9899 3 21 7.1027 21 12.1636C21 13.1536 20.8466 14.1069 20.5627 15" stroke="black" stroke-width="2" stroke-linecap="round"/>
<path d="M14.9825 14.5986C12.7683 14.7945 11.2018 14.7948 9.01919 14.5999C8.60457 14.5629 8.29996 15.0277 8.50182 15.3918C9.09386 16.4595 9.81857 17.5 12 17.5C14.1826 17.5 14.9069 16.4584 15.4991 15.39C15.7008 15.0263 15.3968 14.5619 14.9825 14.5986Z" stroke="black" stroke-width="1.5"/>
<path d="M16 8.5L14.423 9.02566C13.9672 9.17761 13.9672 9.82239 14.423 9.97434L16 10.5" stroke="black" stroke-width="1.5" stroke-linecap="round"/>
<path d="M8 8.5L9.57697 9.02566C10.0328 9.17761 10.0328 9.82239 9.57697 9.97434L8 10.5" stroke="black" stroke-width="1.5" stroke-linecap="round"/>
</svg>
