<svg width="24" height="24" viewBox="0 0 24 24" fill="none" xmlns="http://www.w3.org/2000/svg">
<path d="M18.6955 10.168C18.7141 9.96174 18.7238 9.75662 18.7261 9.54954C18.7317 9.03642 18.043 8.96647 17.8507 9.44223C17.7298 9.74122 17.5922 10.0454 17.4092 10.4225C17.2884 10.6715 17.0861 10.8692 16.8588 11.0272C16.8301 11.0471 16.802 11.0673 16.7745 11.0875C16.1049 11.5807 16.4722 12.5447 17.2692 12.782L17.3531 12.8069C17.6727 12.9021 18.0129 12.744 18.1428 12.4369" stroke="black" stroke-width="1.5" stroke-linecap="round"/>
<path d="M13.9434 16.4625L14.6317 14.9484C14.8699 14.4246 15.4875 14.193 16.0113 14.4312C16.5351 14.6693 16.7667 15.287 16.5286 15.8108L15.6098 17.8318L14.519 20.2311C14.2809 20.7549 13.6632 20.9865 13.1394 20.7483C12.6156 20.5102 12.384 19.8925 12.6222 19.3687L12.7539 19.0791" stroke="black" stroke-width="1.5" stroke-linecap="round"/>
<path d="M17.191 7C16.0009 5.83084 15.5208 5.73659 14.191 5.5" stroke="black" stroke-width="2" stroke-linecap="round"/>
<path d="M10.691 5C7.53776 5.11797 6.50384 5.5 5.50384 6C1.29863 8.1026 0.900754 12.0828 4.191 15.5" stroke="black" stroke-width="2" stroke-linecap="round"/>
<path d="M7.19101 18C8.10966 18.5386 8.61942 18.8625 9.69101 19" stroke="black" stroke-width="2" stroke-linecap="round"/>
<path d="M18.191 18C18.338 17.9823 18.4768 17.9661 18.6094 17.9508C20.1479 17.773 21.4733 15.7681 20.1285 15" stroke="black" stroke-width="2" stroke-linecap="round"/>
<path d="M13.5038 13C13.0038 13 13.0429 11.9444 13.191 11.5C13.3392 11.0556 13.691 10.5 14.191 10.5" stroke="black" stroke-width="2" stroke-linecap="round"/>
<mask id="path-8-inside-1_1_2" fill="white">
<ellipse cx="10.2148" cy="16.3142" rx="1.3406" ry="0.957569" transform="rotate(1 10.2148 16.3142)"/>
</mask>
<path d="M11.5552 16.3375L10.5553 16.3201C10.5578 16.1778 10.6409 16.1447 10.5838 16.1839C10.5287 16.2219 10.4013 16.275 10.2155 16.2717L10.1981 17.2716L10.1806 18.2714C10.7351 18.2811 11.2816 18.1316 11.7177 17.8315C12.1518 17.5327 12.5433 17.0261 12.555 16.355L11.5552 16.3375ZM10.1981 17.2716L10.2155 16.2717C10.0297 16.2685 9.90426 16.211 9.85051 16.1711C9.79486 16.1299 9.87672 16.1659 9.87423 16.3082L8.87438 16.2908L7.87454 16.2733C7.86282 16.9444 8.23638 17.4643 8.65981 17.7781C9.08513 18.0932 9.62611 18.2617 10.1806 18.2714L10.1981 17.2716ZM8.87438 16.2908L9.87423 16.3082C9.87175 16.4505 9.78869 16.4836 9.84574 16.4444C9.90085 16.4064 10.0283 16.3533 10.214 16.3566L10.2315 15.3567L10.2489 14.3569C9.69444 14.3472 9.14791 14.4967 8.71185 14.7969C8.27773 15.0956 7.88625 15.6022 7.87454 16.2733L8.87438 16.2908ZM10.2315 15.3567L10.214 16.3566C10.3998 16.3598 10.5253 16.4173 10.579 16.4572C10.6347 16.4984 10.5528 16.4624 10.5553 16.3201L11.5552 16.3375L12.555 16.355C12.5667 15.6839 12.1932 15.164 11.7697 14.8502C11.3444 14.5351 10.8034 14.3666 10.2489 14.3569L10.2315 15.3567Z" fill="black" mask="url(#path-8-inside-1_1_2)"/>
<mask id="path-10-inside-2_1_2" fill="white">
<ellipse cx="7.73087" cy="13.8371" rx="1.3406" ry="0.957569" transform="rotate(-2 7.73087 13.8371)"/>
</mask>
<path d="M9.07065 13.7903L8.07126 13.8252C8.06629 13.683 8.14751 13.6456 8.09259 13.6878C8.03953 13.7285 7.91508 13.7882 7.72939 13.7947L7.76429 14.7941L7.79919 15.7935C8.35344 15.7741 8.89139 15.5962 9.31115 15.2737C9.72904 14.9526 10.0935 14.4262 10.07 13.7554L9.07065 13.7903ZM7.76429 14.7941L7.72939 13.7947C7.5437 13.8012 7.41538 13.7503 7.35962 13.7134C7.30189 13.6751 7.38551 13.7067 7.39048 13.849L6.39109 13.8839L5.3917 13.9188C5.41512 14.5896 5.81538 15.0892 6.25465 15.3804C6.69588 15.6729 7.24494 15.8128 7.79919 15.7935L7.76429 14.7941ZM6.39109 13.8839L7.39048 13.849C7.39545 13.9913 7.31423 14.0287 7.36916 13.9864C7.42221 13.9457 7.54666 13.886 7.73235 13.8795L7.69745 12.8801L7.66255 11.8807C7.1083 11.9001 6.57035 12.078 6.15059 12.4005C5.7327 12.7216 5.36828 13.248 5.3917 13.9188L6.39109 13.8839ZM7.69745 12.8801L7.73235 13.8795C7.91804 13.873 8.04636 13.9239 8.10212 13.9609C8.15985 13.9991 8.07623 13.9675 8.07126 13.8252L9.07065 13.7903L10.07 13.7554C10.0466 13.0846 9.64636 12.585 9.20709 12.2938C8.76586 12.0013 8.2168 11.8614 7.66255 11.8807L7.69745 12.8801Z" fill="black" mask="url(#path-10-inside-2_1_2)"/>
<mask id="path-12-inside-3_1_2" fill="white">
<ellipse cx="6.04811" cy="10.4808" rx="1.3406" ry="0.957569" transform="rotate(-1 6.04811 10.4808)"/>
</mask>
<path d="M7.3885 10.4574L6.38865 10.4749C6.38617 10.3326 6.46803 10.2966 6.41238 10.3378C6.35862 10.3776 6.23314 10.4352 6.04737 10.4384L6.06482 11.4382L6.08227 12.4381C6.63678 12.4284 7.17775 12.2599 7.60308 11.9447C8.02651 11.631 8.40006 11.1111 8.38835 10.44L7.3885 10.4574ZM6.06482 11.4382L6.04737 10.4384C5.8616 10.4416 5.73419 10.3885 5.67907 10.3506C5.62202 10.3113 5.70508 10.3444 5.70757 10.4868L4.70772 10.5042L3.70787 10.5217C3.71958 11.1928 4.11106 11.6993 4.54518 11.9981C4.98124 12.2982 5.52777 12.4478 6.08227 12.4381L6.06482 11.4382ZM4.70772 10.5042L5.70757 10.4868C5.71005 10.6291 5.62819 10.6651 5.68384 10.6238C5.7376 10.584 5.86308 10.5265 6.04885 10.5232L6.0314 9.5234L6.01395 8.52355C5.45944 8.53323 4.91847 8.70174 4.49314 9.0169C4.06971 9.33065 3.69616 9.85058 3.70787 10.5217L4.70772 10.5042ZM6.0314 9.5234L6.04885 10.5232C6.23462 10.52 6.36203 10.5731 6.41714 10.611C6.4742 10.6503 6.39114 10.6172 6.38865 10.4749L7.3885 10.4574L8.38835 10.44C8.37664 9.76888 7.98516 9.2623 7.55104 8.96352C7.11498 8.6634 6.56845 8.51387 6.01395 8.52355L6.0314 9.5234Z" fill="black" mask="url(#path-12-inside-3_1_2)"/>
<mask id="path-14-inside-4_1_2" fill="white">
<ellipse cx="8.5642" cy="8.00377" rx="1.3406" ry="0.957569" transform="rotate(-2 8.5642 8.00377)"/>
</mask>
<path d="M9.90398 7.95699L8.90459 7.99188C8.89962 7.84963 8.98084 7.81223 8.92592 7.85443C8.87287 7.89519 8.74841 7.95488 8.56272 7.96137L8.59762 8.96076L8.63252 9.96015C9.18677 9.94079 9.72473 9.76286 10.1445 9.44033C10.5624 9.11924 10.9268 8.59287 10.9034 7.92209L9.90398 7.95699ZM8.59762 8.96076L8.56272 7.96137C8.37703 7.96785 8.24872 7.91698 8.19295 7.88002C8.13522 7.84176 8.21885 7.8734 8.22382 8.01566L7.22442 8.05056L6.22503 8.08546C6.24846 8.75624 6.64871 9.25591 7.08798 9.54707C7.52922 9.83953 8.07827 9.9795 8.63252 9.96015L8.59762 8.96076ZM7.22442 8.05056L8.22382 8.01566C8.22878 8.15792 8.14757 8.19532 8.20249 8.15312C8.25554 8.11235 8.38 8.05266 8.56568 8.04618L8.53079 7.04679L8.49589 6.0474C7.94163 6.06675 7.40368 6.24468 6.98392 6.56721C6.56604 6.8883 6.20161 7.41467 6.22503 8.08546L7.22442 8.05056ZM8.53079 7.04679L8.56568 8.04618C8.75137 8.03969 8.87969 8.09056 8.93546 8.12752C8.99319 8.16579 8.90956 8.13414 8.90459 7.99188L9.90398 7.95699L10.9034 7.92209C10.8799 7.2513 10.4797 6.75164 10.0404 6.46048C9.59919 6.16801 9.05014 6.02804 8.49589 6.0474L8.53079 7.04679Z" fill="black" mask="url(#path-14-inside-4_1_2)"/>
<path d="M12.7437 7.17944C13.3932 7.09968 13.7894 7.46897 13.8273 7.77545C13.865 8.08201 13.57 8.53709 12.9202 8.61688C12.2703 8.69667 11.874 8.32646 11.8364 8.0199C11.7991 7.71334 12.0941 7.25919 12.7437 7.17944Z" stroke="black"/>
</svg>
