<svg width="24" height="24" viewBox="0 0 24 24" fill="none" xmlns="http://www.w3.org/2000/svg">
<path d="M15.556 6.27674C15.601 5.77951 15.6075 5.28699 15.587 4.77574C15.5653 4.23611 14.8338 4.16571 14.6521 4.6743C14.4256 5.30836 14.1923 5.85224 13.8196 6.62034C13.6565 6.95659 13.3834 7.2234 13.0765 7.4367C13.0377 7.46364 12.9998 7.49079 12.9627 7.51813C12.0588 8.184 12.5546 9.48536 13.6306 9.80566L13.7438 9.83937C14.1753 9.96783 14.6345 9.75446 14.8099 9.3398" stroke="black" stroke-width="2" stroke-linecap="round"/>
<path d="M9.36572 14.9251L10.295 12.8811C10.6165 12.174 11.4503 11.8613 12.1574 12.1828C12.8646 12.5043 13.1772 13.3381 12.8557 14.0453L11.6154 16.7736L10.1428 20.0127C9.82136 20.7198 8.98751 21.0324 8.28038 20.711C7.57324 20.3895 7.26061 19.5556 7.58208 18.8485L7.75987 18.4574" stroke="black" stroke-width="2" stroke-linecap="round"/>
</svg>
