<svg width="24" height="24" viewBox="0 0 24 24" fill="none" xmlns="http://www.w3.org/2000/svg">
<path d="M12.8333 9.61726C12.5688 9.54091 12.2892 9.5 12 9.5C10.3431 9.5 9 10.8431 9 12.5C9 14.1569 10.3431 15.5 12 15.5C13.6569 15.5 15 14.1569 15 12.5" stroke="black" stroke-width="2" stroke-linecap="round"/>
<path d="M7.07778 18V18.6524C7.07778 20.361 9.08173 21.2829 10.3791 20.1711L10.6851 19.9089C11.4512 19.2525 12.5863 19.2694 13.3325 19.9483L13.5282 20.1264C14.7824 21.2676 16.7985 20.4282 16.8723 18.7342L16.9069 17.9397C16.9467 17.0254 17.6021 16.2548 18.4981 16.0686L19.2638 15.9095C20.9805 15.5528 21.4399 13.3169 20.0029 12.3123L19.5668 12.0074C18.7737 11.4529 18.4914 10.4101 18.8964 9.53119L19.2721 8.71593C20.0238 7.0848 18.4113 5.36641 16.7358 6.01296L16.6067 6.06276C15.5886 6.4556 14.4435 5.95982 14.0334 4.94858L13.8795 4.56936C13.2045 2.90499 10.8479 2.90499 10.1728 4.56936L9.93193 5.16331C9.55786 6.08556 8.56261 6.59245 7.5967 6.35266L7.06851 6.22154C5.38902 5.8046 4.00853 7.57278 4.82043 9.10097L5.10131 9.62966C5.54184 10.4588 5.34624 11.4828 4.63111 12.0913L3.85077 12.7552C2.91951 13.5475 3.16474 15.0459 4.3 15.5" stroke="black" stroke-width="2" stroke-linecap="round"/>
</svg>
