<svg width="24" height="24" viewBox="0 0 24 24" fill="none" xmlns="http://www.w3.org/2000/svg">
<path d="M18 18C18 18.2923 18 18.4137 17.8002 18.7639C17.395 19.4739 16.4485 19.6471 15.76 19.2064L12.8434 17.3398C12.3328 17.013 11.6757 17.0257 11.1781 17.372L8.48869 19.2434C7.32133 20.0557 5.78435 18.939 6.19618 17.5778L7.13596 14.4715C7.31601 13.8763 7.11024 13.2318 6.61865 12.8511L3.77256 10.6471C2.86888 9.94728 3.35703 8.3 4.5 8.3" stroke="black" stroke-width="2" stroke-linecap="round"/>
<path d="M16.8727 14.5L16.8673 14.4824C16.6856 13.8818 16.8969 13.2317 17.3968 12.8527L19.9739 10.8989C21.1072 10.0397 20.5201 8.23285 19.0983 8.20387L15.8649 8.13798C15.2377 8.1252 14.6846 7.7234 14.4787 7.13079L13.4168 4.07608C12.9499 2.73274 11.0501 2.73274 10.5832 4.07608L9.49602 7.20361C9.30525 7.75245 8.79306 8.12458 8.21214 8.13641" stroke="black" stroke-width="2" stroke-linecap="round"/>
</svg>
