<svg width="24" height="24" viewBox="0 0 24 24" fill="none" xmlns="http://www.w3.org/2000/svg">
<path d="M19 15H21.5M19 18H20" stroke="black" stroke-width="2" stroke-linecap="round"/>
<path d="M22.5 12H23M19 12H19.5" stroke="black" stroke-width="2" stroke-linecap="round"/>
<path d="M8 3H15.5C16.3284 3 17 3.67157 17 4.5V4.77049C17 5.44953 16.4495 6 15.7705 6H3.22951C2.55047 6 2 5.44953 2 4.77049V4.5C2 3.67157 2.67157 3 3.5 3" stroke="black" stroke-width="2" stroke-linecap="round"/>
<path d="M3 9L3.80973 18.2613C3.94522 19.811 5.24275 21 6.79833 21H12.3579C13.7391 21 14.8889 19.9393 15 18.5625" stroke="black" stroke-width="2" stroke-linecap="round"/>
<path d="M15.5 15L16 9" stroke="black" stroke-width="2" stroke-linecap="round"/>
<path d="M7 21L16 12" stroke="black" stroke-width="1.5" stroke-linecap="round"/>
<path d="M4 18L14 8.5" stroke="black" stroke-width="1.5" stroke-linecap="round"/>
<path d="M3.5 13.5L8.5 8.5" stroke="black" stroke-width="1.5" stroke-linecap="round"/>
<path d="M8.5 8.5L15.5 15" stroke="black" stroke-width="1.5" stroke-linecap="round"/>
<path d="M3 9L14 20" stroke="black" stroke-width="1.5" stroke-linecap="round"/>
<path d="M4 16L9 21" stroke="black" stroke-width="1.5" stroke-linecap="round"/>
<path d="M14 8.5L16 10.5" stroke="black" stroke-width="1.5" stroke-linecap="round"/>
</svg>
