<svg width="24" height="24" viewBox="0 0 24 24" fill="none" xmlns="http://www.w3.org/2000/svg">
<path d="M5.19624 15.1854L5.64602 14.4802C6.27458 13.4946 6.62217 12.2786 6.65189 11.0258C6.83243 3.4167 17.1676 3.4167 17.3481 11.0258C17.3778 12.2786 17.7254 13.4946 18.354 14.4802L18.8038 15.1854C19.2731 15.9213 18.8476 17 18.0879 17H5.91213C5.15244 17 4.72688 15.9213 5.19624 15.1854Z" fill="black" stroke="black" stroke-width="1.5"/>
<path d="M11.9326 2.5C12.8867 2.50012 13.6777 3.17793 13.8633 4.0752C13.2326 3.90539 12.5803 3.82031 11.9316 3.82031C11.2829 3.82037 10.6306 3.90534 10 4.0752C10.1856 3.17774 10.9783 2.5 11.9326 2.5Z" fill="black"/>
<path d="M15.7852 18.5C15.6504 19.1347 15.2487 19.6645 14.7402 20.0381C14.1116 20.4999 13.2787 20.7627 12.3926 20.7627C11.5067 20.7626 10.6744 20.4997 10.0459 20.0381C9.53741 19.6645 9.13497 19.1347 9 18.5H15.7852Z" fill="black"/>
</svg>
