<svg width="24" height="24" viewBox="0 0 24 24" fill="none" xmlns="http://www.w3.org/2000/svg">
<path d="M2 7.26667V7C2 4.79086 3.79086 3 6 3H18C20.2091 3 22 4.79086 22 7V11" stroke="black" stroke-width="2" stroke-linecap="round"/>
<path d="M22 15.7333V16C22 18.2091 20.2091 20 18 20H6C3.79086 20 2 18.2091 2 16V12" stroke="black" stroke-width="2" stroke-linecap="round"/>
<path d="M6 7.73529V11.5M6 15.2647V11.5M6 11.5H10.5M10.5 11.5V7.73529M10.5 11.5V15.2647M14.8769 15.5H14.6167C14.138 15.5 13.75 15.112 13.75 14.6333V8.36666C13.75 7.88802 14.138 7.5 14.6167 7.5H14.8769C16.7124 7.5 18.3123 8.74919 18.7575 10.5299C18.9167 11.1668 18.9167 11.8332 18.7575 12.4701C18.3123 14.2508 16.7124 15.5 14.8769 15.5Z" stroke="black" stroke-width="2" stroke-linecap="round"/>
</svg>
