<svg width="24" height="24" viewBox="0 0 24 24" fill="none" xmlns="http://www.w3.org/2000/svg">
<path d="M13 11.5003C12.4489 10.4154 11.0026 10.6608 10.128 11.5069L7.47216 14.0762C6.69125 14.8316 6.75106 16.1011 7.59956 16.7798L7.62702 16.8017C8.15924 17.2274 8.89035 17.305 9.5 17.0003" stroke="black" stroke-width="1.5" stroke-linecap="round"/>
<path d="M5.29018 13.7256C4.05264 15.0142 4.09893 17.0634 5.3934 18.2948L5.85912 18.7378C7.34188 20.1483 9.66726 20.158 11.1617 18.7599L11.479 18.4631" stroke="black" stroke-width="1.5" stroke-linecap="round"/>
<path d="M15 10.5C14.694 10.0411 14.3896 9.66113 14.0713 9.32422C12.7603 7.93653 10.5126 8.22117 9.12583 9.53319L7.48841 11.0824" stroke="black" stroke-width="1.5" stroke-linecap="round"/>
<path d="M15.9538 8.41095L16.0779 8.30797C16.7211 7.77436 17.6804 7.89005 18.1782 8.56127C18.6188 9.15527 18.5444 9.98513 18.0052 10.4913L14.3996 13.8759C13.6683 14.5624 12.4863 14.3772 12 13.5" stroke="black" stroke-width="1.5" stroke-linecap="round"/>
<path d="M14.5736 6.80695L14.9374 6.46985C16.3835 5.13002 18.6516 5.25327 19.944 6.74191L20.2304 7.07185C21.3398 8.34964 21.1989 10.2858 19.9162 11.3895" stroke="black" stroke-width="1.5" stroke-linecap="round"/>
<path d="M10 14.5C10.1972 15.0916 10.5025 15.5356 10.88 15.9453C11.9904 17.1503 13.9907 17.1353 15.2252 16.0578L17.2682 14.2747" stroke="black" stroke-width="1.5" stroke-linecap="round"/>
</svg>
