<svg width="24" height="24" viewBox="0 0 24 24" fill="none" xmlns="http://www.w3.org/2000/svg">
<path d="M8 16H9.5" stroke="black" stroke-width="2" stroke-linecap="round"/>
<path d="M18.5 16L21 16" stroke="black" stroke-width="2" stroke-linecap="round"/>
<path d="M20.5 16H21" stroke="black" stroke-width="2" stroke-linecap="round"/>
<path d="M16 11L16 13.5" stroke="black" stroke-width="2" stroke-linecap="round"/>
<path d="M16 21L16 19C16 17.3431 14.6569 16 13 16" stroke="black" stroke-width="2" stroke-linecap="round"/>
<path d="M8 4C8.22092 4 11.5864 4 15.5 4" stroke="black" stroke-width="2" stroke-linecap="round"/>
<path d="M20 4C20.5918 4 20.5349 4 21 4" stroke="black" stroke-width="2" stroke-linecap="round"/>
<path d="M8 10H13" stroke="black" stroke-width="2" stroke-linecap="round"/>
<path d="M19 10H21" stroke="black" stroke-width="2" stroke-linecap="round"/>
<path d="M8 16C8.09454 16 7.94321 16 8.5 16" stroke="black" stroke-width="2" stroke-linecap="round"/>
<circle cx="4" cy="4" r="1.25" stroke="black" stroke-width="1.5"/>
<circle cx="4" cy="10" r="1.25" stroke="black" stroke-width="1.5"/>
<circle cx="4" cy="16" r="1.25" stroke="black" stroke-width="1.5"/>
</svg>
