<svg width="24" height="24" viewBox="0 0 24 24" fill="none" xmlns="http://www.w3.org/2000/svg">
<path d="M18.6316 21H20C20.5523 21 21 20.5523 21 20C21 19.4477 20.5523 19 20 19H4C3.44772 19 3 19.4477 3 20C3 20.5523 3.44772 21 4 21H15.7895" stroke="black" stroke-width="1.5" stroke-linecap="round"/>
<path d="M7.73684 7H20.1654C20.6263 7 21 6.62635 21 6.16542C21 5.79159 20.7514 5.46336 20.3916 5.36207L12.8129 3.2288C12.2813 3.07917 11.7187 3.07918 11.1871 3.2288L3.60845 5.36207C3.24859 5.46336 3 5.79159 3 6.16542C3 6.62635 3.37365 7 3.83458 7H4.89474" stroke="black" stroke-width="1.5" stroke-linecap="round"/>
<path d="M4 17L4.53333 9M6.13333 9L6.66667 17M10.6667 17L11.2 9M12.8 9L13.3333 17M17.3333 17L17.8667 9M19.4667 9L20 17" stroke="black" stroke-width="1.5" stroke-linecap="round"/>
</svg>
