<svg width="24" height="24" viewBox="0 0 24 24" fill="none" xmlns="http://www.w3.org/2000/svg">
<path d="M14.256 5.50251L15.1252 4.25161L15.5597 3.62617C16.1838 2.72806 17.4177 2.50587 18.3158 3.1299C19.2139 3.75393 19.436 4.98801 18.812 5.88611C18.6241 6.15655 18.4637 6.38738 18.3775 6.51141L12.6411 14.7673" stroke="black" stroke-width="1.5" stroke-linecap="round"/>
<path d="M17 5.55429L16.5 5.20688" stroke="black" stroke-width="1.5" stroke-linecap="round"/>
<path d="M7.8033 17.7123L8.21743 18" stroke="black" stroke-width="1.5" stroke-linecap="round"/>
<path d="M12.17 8.50466L6.78499 16.2549C6.55317 16.5885 6.39153 16.9658 6.30988 17.3638L5.9344 19.194C5.7633 20.0279 6.64616 20.6806 7.39334 20.2726L9.06442 19.3598C9.47316 19.1366 9.82431 18.8213 10.0901 18.4388L10.5551 17.7695" stroke="black" stroke-width="1.5" stroke-linecap="round"/>
</svg>
