<svg width="24" height="24" viewBox="0 0 24 24" fill="none" xmlns="http://www.w3.org/2000/svg">
<path d="M6.32949 18.1975C5.91275 17.8351 5.28112 17.8791 4.9187 18.2958C4.55627 18.7126 4.6003 19.3442 5.01703 19.7066L5.67326 18.9521L6.32949 18.1975ZM19.6127 16.8617L20.6075 16.7594C20.551 16.21 20.0598 15.8104 19.5104 15.8669L19.6127 16.8617ZM15.77 16.2516C15.2206 16.3081 14.821 16.7993 14.8775 17.3487C14.934 17.8981 15.4252 18.2976 15.9746 18.2411L15.8723 17.2464L15.77 16.2516ZM18.9759 20.4444C19.0324 20.9938 19.5236 21.3933 20.073 21.3368C20.6224 21.2803 21.0219 20.7892 20.9654 20.2398L19.9707 20.3421L18.9759 20.4444ZM12.6933 21.0906L12.591 20.0958C10.1672 20.3451 7.91723 19.5783 6.32949 18.1975L5.67326 18.9521L5.01703 19.7066C7.02933 21.4567 9.83086 22.3902 12.7956 22.0853L12.6933 21.0906ZM19.6127 16.8617L18.7585 16.3419C17.5465 18.3336 15.3066 19.8165 12.591 20.0958L12.6933 21.0906L12.7956 22.0853C16.1147 21.7439 18.9201 19.9236 20.467 17.3815L19.6127 16.8617ZM19.6127 16.8617L19.5104 15.8669L15.77 16.2516L15.8723 17.2464L15.9746 18.2411L19.715 17.8564L19.6127 16.8617ZM19.6127 16.8617L18.618 16.964L18.9759 20.4444L19.9707 20.3421L20.9654 20.2398L20.6075 16.7594L19.6127 16.8617Z" fill="black"/>
<path d="M3.39136 15.6129C3.20721 15.0802 3.08159 14.5208 3.02187 13.9401" stroke="black" stroke-width="2" stroke-linecap="round"/>
<path d="M4.42455 7.77948L3.42778 7.85975C3.44937 8.12794 3.57813 8.3761 3.78495 8.54819C3.99178 8.72027 4.25922 8.80176 4.52686 8.77423L4.42455 7.77948ZM8.73972 8.34094C9.28911 8.28443 9.68867 7.79326 9.63217 7.24387C9.57566 6.69449 9.08449 6.29493 8.5351 6.35143L8.63741 7.34618L8.73972 8.34094ZM5.08863 3.56827C5.0443 3.01776 4.56209 2.60743 4.01159 2.65177C3.46108 2.6961 3.05075 3.17831 3.09509 3.72882L4.09186 3.64854L5.08863 3.56827ZM17.7962 7.2082C18.1874 7.59812 18.8205 7.59714 19.2105 7.20601C19.6004 6.81488 19.5994 6.18172 19.2083 5.7918L18.5023 6.5L17.7962 7.2082ZM4.42455 7.77948L4.52686 8.77423L8.73972 8.34094L8.63741 7.34618L8.5351 6.35143L4.32224 6.78472L4.42455 7.77948ZM4.42455 7.77948L5.42132 7.6992L5.08863 3.56827L4.09186 3.64854L3.09509 3.72882L3.42778 7.85975L4.42455 7.77948ZM11.0555 3.85792L11.1578 4.85268C13.7101 4.59018 16.1086 5.52578 17.7962 7.2082L18.5023 6.5L19.2083 5.7918C17.1134 3.70344 14.1282 2.53662 10.9532 2.86317L11.0555 3.85792ZM4.42455 7.77948L5.24673 8.3487C6.56561 6.4437 8.67496 5.10804 11.1578 4.85268L11.0555 3.85792L10.9532 2.86317C7.86481 3.18081 5.23962 4.84538 3.60236 7.21026L4.42455 7.77948Z" fill="black"/>
<path d="M20.6989 10C20.9264 10.658 21.0824 11.3524 21.1567 12.0749" stroke="black" stroke-width="2" stroke-linecap="round"/>
</svg>
