<svg width="24" height="24" viewBox="0 0 24 24" fill="none" xmlns="http://www.w3.org/2000/svg">
<path d="M10.5 12.5L10.9722 12.9722C11.545 13.545 12.4691 13.5596 13.0596 13.0051L17.0792 9.23118C17.4095 8.92105 17.1901 8.36667 16.737 8.36667H14.6818C14.4057 8.36667 14.1818 8.14281 14.1818 7.86667V5.18182C14.1818 3.97683 13.205 3 12 3C10.795 3 9.81818 3.97683 9.81818 5.18182V7.86667C9.81818 8.14281 9.59432 8.36667 9.31818 8.36667H7.35353C6.8891 8.36667 6.67559 8.94467 7.02848 9.24659L7.75982 9.87229" stroke="black" stroke-width="2" stroke-linecap="round"/>
<path d="M17.8667 17H18C19.1046 17 20 17.8954 20 19C20 20.1046 19.1046 21 18 21H6C4.89543 21 4 20.1046 4 19C4 17.8954 4.89543 17 6 17H13.0667" stroke="black" stroke-width="2" stroke-linecap="round"/>
</svg>
