<svg width="24" height="24" viewBox="0 0 24 24" fill="none" xmlns="http://www.w3.org/2000/svg">
<path d="M17.1588 13.0331L19.9739 10.8989C21.1072 10.0397 20.5201 8.23285 19.0983 8.20387L15.8649 8.13798C15.2377 8.1252 14.6846 7.7234 14.4787 7.13079L13.4168 4.07608C12.9499 2.73274 11.0501 2.73274 10.5832 4.07608L9.52884 7.10921C9.31917 7.71241 8.75192 8.12223 8.11394 8.1501C7.37236 8.18249 6.3867 8.23458 5.38161 8.28877C3.95387 8.36576 3.33792 10.3105 4.46839 11.186L6.61865 12.8511C7.11024 13.2318 7.31601 13.8763 7.13596 14.4715L6.19618 17.5778C5.78436 18.939 7.32133 20.0557 8.48869 19.2434L11.1308 17.4048C11.6519 17.0422 12.3448 17.0469 12.8609 17.4165L15.3011 19.1638C16.4622 19.9953 18.025 18.8853 17.6321 17.5123C17.2685 16.242 16.9154 14.9805 16.7204 14.2102C16.6053 13.7551 16.7848 13.3167 17.1588 13.0331Z" fill="black" stroke="black" stroke-width="2"/>
</svg>
