<svg width="24" height="24" viewBox="0 0 24 24" fill="none" xmlns="http://www.w3.org/2000/svg">
<path d="M21.1177 15.6887C21.4311 17.0353 20.5936 18.3811 19.2469 18.6945L15.5485 19.5554C13.9348 19.931 12.3221 18.9273 11.9465 17.3136L10.9193 12.9004" stroke="black" stroke-width="2" stroke-linecap="round"/>
<path d="M10.0048 8.97147L9.79253 8.05973C9.41692 6.44602 10.4206 4.83335 12.0343 4.45773L15.2916 3.69954C16.8886 3.32781 18.4883 4.30719 18.8833 5.8986L20.2985 11.5991" stroke="black" stroke-width="2" stroke-linecap="round"/>
<path d="M8.47151 11.5824L7.4016 15.2717C6.93594 16.8774 7.87269 18.5539 9.48422 18.999L9.85026 19.1001" stroke="black" stroke-width="2" stroke-linecap="round"/>
<path d="M5.4858 18.0769C4.13988 17.2295 3.71821 15.4617 4.53672 14.098L7.53299 9.10609" stroke="black" stroke-width="2" stroke-linecap="round"/>
<circle cx="12.5008" cy="7.38748" r="0.75" transform="rotate(-13.1031 12.5008 7.38748)" stroke="black"/>
</svg>
