<svg width="24" height="24" viewBox="0 0 24 24" fill="none" xmlns="http://www.w3.org/2000/svg">
<path d="M10 3H17.5C18.3284 3 19 3.67157 19 4.5V4.77049C19 5.44953 18.4495 6 17.7705 6H5.22951C4.55047 6 4 5.44953 4 4.77049V4.5C4 3.67157 4.67157 3 5.5 3" stroke="black" stroke-width="2" stroke-linecap="round"/>
<path d="M5 9L5.80973 18.2613C5.94522 19.811 7.24275 21 8.79833 21H14.3579C15.7391 21 16.8889 19.9393 17 18.5625" stroke="black" stroke-width="2" stroke-linecap="round"/>
<path d="M17.5 15L18 9" stroke="black" stroke-width="2" stroke-linecap="round"/>
<path d="M9 21L18 12" stroke="black" stroke-width="1.5" stroke-linecap="round"/>
<path d="M6 18L16 8.5" stroke="black" stroke-width="1.5" stroke-linecap="round"/>
<path d="M5.5 13.5L10.5 8.5" stroke="black" stroke-width="1.5" stroke-linecap="round"/>
<path d="M10.5 8.5L17.5 15" stroke="black" stroke-width="1.5" stroke-linecap="round"/>
<path d="M5 9L16 20" stroke="black" stroke-width="1.5" stroke-linecap="round"/>
<path d="M6 16L11 21" stroke="black" stroke-width="1.5" stroke-linecap="round"/>
<path d="M16 8.5L18 10.5" stroke="black" stroke-width="1.5" stroke-linecap="round"/>
</svg>
